<?xml version="1.0" encoding="utf-8"?>
<!-- Generator: Adobe Illustrator 21.0.0, SVG Export Plug-In . SVG Version: 6.00 Build 0)  -->
<svg version="1.1" id="_x37_80c6f38-12e9-4526-8343-95ef18389740"
	 xmlns="http://www.w3.org/2000/svg" xmlns:xlink="http://www.w3.org/1999/xlink" x="0px" y="0px" viewBox="0 0 971.4 662"
	 style="enable-background:new 0 0 971.4 662;" xml:space="preserve">
<style type="text/css">
	.st0{opacity:0.7;}
	.st1{fill:url(#SVGID_1_);}
	.st2{fill:#4DB6AC;}
	.st3{opacity:0.6;fill:none;stroke:#535461;stroke-miterlimit:10;enable-background:new    ;}
	.st4{fill:#6C63FF;}
	.st5{fill:url(#SVGID_2_);}
	.st6{opacity:0.1;enable-background:new    ;}
	.st7{fill:#E0E0E0;}
	.st8{fill:url(#SVGID_3_);}
	.st9{fill:#82640F;}
	.st10{fill:#FDA57D;}
	.st11{fill:url(#SVGID_4_);}
	.st12{fill:#535461;}
	.st13{fill:#FFFFFF;}
	.st14{fill:#EEEEEE;}
</style>
<title>designer</title>
<g class="st0">
	
		<linearGradient id="SVGID_1_" gradientUnits="userSpaceOnUse" x1="178.2616" y1="30.035" x2="299.6982" y2="30.035" gradientTransform="matrix(1 0 0 -1 -114.28 545)">
		<stop  offset="0" style="stop-color:#808080;stop-opacity:0.25"/>
		<stop  offset="0.54" style="stop-color:#808080;stop-opacity:0.12"/>
		<stop  offset="1" style="stop-color:#808080;stop-opacity:0.1"/>
	</linearGradient>
	<path class="st1" d="M184.7,485.1c2.4-9.5-1.4-19.4-9.4-25c-2.1-1.4-4.4-2.5-6.3-4c-3.2-2.7-5-6.6-6.3-10.5
		c-3.1-9.4-4.1-20-9.6-28.5c-5-7.8-14.8-10-23.4-10.8c-3.1-0.3-6.5-0.4-9.3,0.9c-4.8,2.2-7.1,7.9-7.3,13.2s1.2,10.5,1.5,15.8
		s-0.6,11.1-4.5,14.7s-9.5,4-14.6,4.7c-6.8,0.9-13.4,2.6-19.8,4.9c-5.4,2-11.4,5.5-11.6,11.2c-0.2,4.7,3.6,8.4,6.4,12.2
		c5.3,7,8,16.2,6.2,24.7s-8,16.2-9.1,25c-0.4,2.2-0.1,4.6,0.9,6.6c0.9,1.4,2,2.6,3.3,3.6c3.3,2.6,7,4.6,10.2,7.4
		c6.6,5.8,10.1,14.3,12.9,22.6c0.3,0.8,0.5,1.6,0.8,2.4h-6.5c-13.1,0.1-23.8,10.7-23.9,23.8l0,0c0.1,13.2,10.7,23.8,23.9,23.9h64.5
		c13.2-0.1,23.8-10.7,23.9-23.9l0,0c-0.1-13.2-10.7-23.8-23.9-23.9h-17.7c4.2-5.6,8.6-10.9,15-13s14.3-0.9,19.3-5.4
		c2.4-2.3,3.9-5.4,4.4-8.7c1.1-5.9,0.1-12-2.8-17.2c-2-3.6-5-6.9-5.6-11c-0.5-3.5,0.7-7.1,2.4-10.2
		C173.5,501.8,182.1,494.9,184.7,485.1z"/>
</g>
<path class="st2" d="M129.6,411.4c-3-0.3-6.1-0.4-8.9,0.8c-4.6,2.1-6.8,7.5-7,12.5s1.1,10,1.4,15s-0.6,10.6-4.3,14s-9,3.8-13.9,4.5
	c-6.4,0.9-12.8,2.5-18.9,4.7c-5.1,1.9-10.9,5.2-11.1,10.7c-0.2,4.5,3.4,8,6.1,11.6c5.1,6.6,7.6,15.4,5.9,23.5s-7.6,15.4-8.6,23.9
	c-0.4,2.1-0.1,4.3,0.9,6.3c0.8,1.3,1.9,2.5,3.2,3.4c3.2,2.5,6.7,4.4,9.7,7.1c6.3,5.5,9.6,13.6,12.3,21.5c2.6,7.8,4.6,15.8,6,23.9
	c5.4-3.5,12.4-3.4,18.1-6.2c12.3-6,16.4-23.4,29.3-27.7c6.1-2,13.6-0.8,18.4-5.1c2.3-2.2,3.7-5.1,4.2-8.3c1-5.6,0.1-11.4-2.7-16.4
	c-1.9-3.5-4.8-6.6-5.4-10.5c-0.5-3.3,0.7-6.7,2.3-9.7c4.6-8.5,12.9-15,15.4-24.3c2.2-9-1.3-18.5-8.9-23.8c-2.1-1.2-4.1-2.5-6-3.9
	c-3-2.5-4.7-6.3-6-10c-3-9-3.9-19-9.2-27.2C147.1,414.3,137.8,412.2,129.6,411.4z"/>
<path class="st3" d="M129.5,411.7c0,0,11.4,152.4-18.2,178.6"/>
<path class="st4" d="M83.3,573.2h76.5c8.4,0,15.2,6.8,15.2,15.2v15.1c0,8.4-6.8,15.2-15.2,15.2H83.3c-8.4,0-15.2-6.8-15.2-15.2
	v-15.1C68.1,580,74.9,573.2,83.3,573.2z"/>
<path class="st3" d="M66.9,470.9c0,0,29.1-3.4,64.6,18.2"/>
<path class="st3" d="M130.9,507.3c0,0,16.2-26.7,50.9-31.8"/>
<path class="st3" d="M69.7,532.9c0,0,40.3-6.8,58.8,4.5"/>
<path class="st3" d="M126.3,553c0,0,21.1-9.6,44.8-1.8"/>
<g class="st0">
	
		<linearGradient id="SVGID_2_" gradientUnits="userSpaceOnUse" x1="979.4298" y1="-74.6" x2="979.4298" y2="17.22" gradientTransform="matrix(1 0 0 -1 -114.28 545)">
		<stop  offset="0" style="stop-color:#808080;stop-opacity:0.25"/>
		<stop  offset="0.54" style="stop-color:#808080;stop-opacity:0.12"/>
		<stop  offset="1" style="stop-color:#808080;stop-opacity:0.1"/>
	</linearGradient>
	<path class="st5" d="M895.5,544.2v-16.4h-82v75.8c0,8.8,7.2,16,16,16h50c8.8,0,16-7.2,16-16v-16.8c11.8,0,21.3-9.5,21.3-21.3
		C916.8,553.7,907.3,544.2,895.5,544.2C895.5,544.2,895.5,544.2,895.5,544.2z M895.5,578.6v-26.2c7.2-0.2,13.3,5.5,13.5,12.8
		c0.2,7.2-5.5,13.3-12.8,13.5C896,578.6,895.7,578.6,895.5,578.6z"/>
</g>
<path class="st4" d="M892.9,546.7c-10.7,0-19.5,8.7-19.5,19.5c0,10.7,8.7,19.5,19.5,19.5c10.7,0,19.5-8.7,19.5-19.5l0,0
	C912.3,555.5,903.6,546.7,892.9,546.7z M892.9,578.2c-6.6,0-12-5.4-12-12s5.4-12,12-12s12,5.4,12,12
	C904.9,572.8,899.5,578.2,892.9,578.2C892.9,578.2,892.9,578.2,892.9,578.2L892.9,578.2z"/>
<path class="st6" d="M892.9,546.7c-10.7,0-19.5,8.7-19.5,19.5c0,10.7,8.7,19.5,19.5,19.5c10.7,0,19.5-8.7,19.5-19.5l0,0
	C912.3,555.5,903.6,546.7,892.9,546.7z M892.9,578.2c-6.6,0-12-5.4-12-12s5.4-12,12-12s12,5.4,12,12
	C904.9,572.8,899.5,578.2,892.9,578.2C892.9,578.2,892.9,578.2,892.9,578.2L892.9,578.2z"/>
<path class="st4" d="M818,531.8h74.8l0,0v74.1c0,5.4-4.4,9.8-9.8,9.8l0,0h-55.3c-5.4,0-9.8-4.4-9.8-9.8l0,0L818,531.8L818,531.8z"/>
<rect y="615.6" class="st7" width="971.4" height="32.9"/>
<g class="st0">
	
		<linearGradient id="SVGID_3_" gradientUnits="userSpaceOnUse" x1="600.565" y1="13.8501" x2="600.565" y2="545.0101" gradientTransform="matrix(1 0 0 -1 -114.28 545)">
		<stop  offset="0" style="stop-color:#808080;stop-opacity:0.25"/>
		<stop  offset="0.54" style="stop-color:#808080;stop-opacity:0.12"/>
		<stop  offset="1" style="stop-color:#808080;stop-opacity:0.1"/>
	</linearGradient>
	<path class="st8" d="M639,395.3c-10.4-37.8-69.4-65.4-113.8-71.5c0-0.3,0-0.6,0-0.8v-32.3h0.1v-1.3c31.9-11.9,56.6-37.8,67-70.2
		c2.7-5,5.1-10.1,7.2-15.4c4.7-1.7,8.3-9.5,8.3-18.9c0-3.2-0.4-6.4-1.3-9.5c0.6-4.8,0.9-9.6,0.9-14.4c0-34.1-14.4-66.6-39.7-89.4
		c0.4-1.9,0.5-3.9,0.4-5.9c-1-15.5-17.6-26.1-33.1-26.8c8.4-9.5,10.5-23,5.5-34.6c-9.9,14.4-30.3,16-47.8,16.1
		c7.6-2.9,11-13.4,6.6-20.2c-18.3,24.5-54,29.1-75.8,50.6c-4.7,4.7-8.7,10.1-11.8,16.1c-28.7,22.8-45.3,57.5-45.3,94.1
		c0,4.8,0.3,9.5,0.9,14.3c-0.9,3.1-1.4,6.4-1.4,9.6c0,9.4,3.6,17.3,8.4,19c2,5.3,4.4,10.5,7.2,15.5c10.3,32.3,34.8,58.1,66.5,70V323
		c0,0.3,0,0.5,0,0.8c-44.6,6-104.1,33.8-114.4,71.9c-8.9,32.9-18.4,69-23.2,90.2c40.6,28.5,125.7,45.2,179,45.2
		c50.7,0,133.5-15.1,172.9-41.1C658.1,466.7,648.3,429,639,395.3z"/>
</g>
<path class="st4" d="M489.3,521.7c48.9,0,128.8-14.6,166.8-39.6c-4.1-22.5-13.6-58.9-22.6-91.4c-11.4-41.5-83.5-70.2-126.5-70.2
	h-41.5c-43.2,0-115.4,28.9-126.6,70.6c-8.6,31.7-17.8,66.6-22.3,87.1C355.7,505.6,437.9,521.7,489.3,521.7z"/>
<circle class="st9" cx="486.8" cy="164.5" r="116.2"/>
<path class="st6" d="M449.3,261.3h74.5l0,0v59.6c0,20.6-16.7,37.2-37.2,37.2l0,0c-20.6,0-37.2-16.7-37.2-37.2L449.3,261.3
	L449.3,261.3z"/>
<path class="st10" d="M460,258.5h53.1c5.9,0,10.7,4.8,10.7,10.7v48.9c0,20.6-16.7,37.2-37.2,37.2l0,0c-20.6,0-37.2-16.7-37.2-37.2
	v-48.9C449.3,263.3,454.1,258.5,460,258.5C460,258.5,460,258.5,460,258.5z"/>
<path class="st6" d="M449.4,289.4c24,9,50.4,9,74.5,0.2v-9.1h-74.5V289.4z"/>
<circle class="st10" cx="486.8" cy="187.7" r="106.8"/>
<path class="st6" d="M410.7,90.6c0,0,45,91.3,171.9,38.3l-29.5-46.3l-52.4-18.8L410.7,90.6z"/>
<path class="st9" d="M410.7,89.2c0,0,45,91.3,171.9,38.3l-29.5-46.3l-52.4-18.8L410.7,89.2z"/>
<path class="st9" d="M410.4,83.1c3-9.4,8.3-17.9,15.3-24.9c21-20.8,55.4-25.1,73.1-48.8c4.2,6.6,1,16.7-6.3,19.5
	c16.9-0.1,36.5-1.6,46.1-15.5c4.8,11.2,2.7,24.2-5.3,33.4c15,0.7,31,10.9,32,25.8c0.7,10-5.6,19.4-13.8,25.1
	c-8.2,5.7-18.1,8.4-27.9,10.5C494.9,114.5,391.7,140.9,410.4,83.1z"/>
<path class="st9" d="M593.6,188.6h-2.8l-55.1,49c-53-24.9-92,0-92,0l-57.8-47l-5.8,0.7c1.6,58.9,50.7,105.4,109.6,103.8
	C547.5,293.5,593.5,246.3,593.6,188.6L593.6,188.6z M486.6,256.4c-20.8,0-37.6-4.2-37.6-9.4s16.8-9.4,37.6-9.4s37.6,4.2,37.6,9.4
	S507.4,256.4,486.6,256.4z"/>
<ellipse class="st10" cx="380" cy="187.6" rx="9.9" ry="18.6"/>
<ellipse class="st10" cx="593.5" cy="187.6" rx="9.9" ry="18.6"/>
<g class="st0">
	
		<linearGradient id="SVGID_4_" gradientUnits="userSpaceOnUse" x1="485.72" y1="48.41" x2="485.72" y2="286.3" gradientTransform="matrix(1 0 0 -1 0 664)">
		<stop  offset="0" style="stop-color:#808080;stop-opacity:0.25"/>
		<stop  offset="0.54" style="stop-color:#808080;stop-opacity:0.12"/>
		<stop  offset="1" style="stop-color:#808080;stop-opacity:0.1"/>
	</linearGradient>
	<path class="st11" d="M293.7,377.7h384.1c8,0,14.5,6.5,14.5,14.5v208.9c0,8-6.5,14.5-14.5,14.5H293.7c-8,0-14.5-6.5-14.5-14.5
		V392.2C279.2,384.2,285.7,377.7,293.7,377.7z"/>
</g>
<path class="st12" d="M313.5,382.1H658c14.8,0,26.8,12,26.8,26.8v179.8c0,14.8-12,26.8-26.8,26.8H313.5c-14.8,0-26.8-12-26.8-26.8
	V408.9C286.6,394.1,298.7,382.1,313.5,382.1z"/>
<circle class="st13" cx="485.7" cy="498.9" r="13.5"/>
<rect x="41.2" y="648.5" class="st7" width="889.1" height="13.5"/>
<rect x="41.2" y="648.5" class="st6" width="889.1" height="4.5"/>
<path class="st6" d="M879.4,531.8V601c0,8.1-6.5,14.6-14.6,14.6h0h7.5c8.1,0,14.6-6.5,14.6-14.6c0,0,0,0,0,0v-69.2H879.4z"/>
<path class="st14" d="M832.8,476c-1.3,0.2-2.7,0.6-3.3,1.7c-1,1.8,0.8,3.8,2.4,5c3,2.3,6.2,4.5,8.2,7.6s2.7,7.5,0.5,10.6
	c-2.9,4-9.8,4.8-10.5,9.7c-0.4,3.1,2.3,5.8,5,7.3c6.7,3.9,15.4,4.9,20.3,10.9c2-4.2,6.5-6.5,11-7.6c4.5-1,9.2-1,13.8-1.6
	c1.5-0.2,3.1-0.7,3.8-2c1.3-2.6-2.4-5.7-1.1-8.3c1-2,3.8-1.8,5.8-2.6c3.3-1.3,4.7-5.6,3.8-9c-0.9-3.4-3.6-6.2-6.4-8.4
	c-7.6-6-16.7-9.5-25.9-12c-4.3-1.2-9.3-3-13.8-3.2C841.9,473.9,837,475.3,832.8,476z"/>
<ellipse class="st12" cx="451" cy="176.1" rx="9.5" ry="8.3"/>
<ellipse class="st12" cx="525.9" cy="179.3" rx="9.5" ry="8.3"/>
</svg>
