<?xml version="1.0" encoding="utf-8"?>
<!-- Generator: Adobe Illustrator 21.0.0, SVG Export Plug-In . SVG Version: 6.00 Build 0)  -->
<svg version="1.1" id="_x37_d1857de-4e1d-4ad3-937b-baacafe47dc3"
	 xmlns="http://www.w3.org/2000/svg" xmlns:xlink="http://www.w3.org/1999/xlink" x="0px" y="0px" viewBox="0 0 1030 729.9"
	 style="enable-background:new 0 0 1030 729.9;" xml:space="preserve">
<style type="text/css">
	.st0{opacity:0.1;fill:#6C63FF;enable-background:new    ;}
	.st1{fill:none;stroke:#535461;stroke-width:2.1874;stroke-miterlimit:10;}
	.st2{fill:#6C63FF;}
	.st3{fill:#E6E6F0;}
	.st4{fill:#FDC2CC;}
	.st5{fill:#565171;}
	.st6{opacity:0.1;enable-background:new    ;}
	.st7{fill:#B45181;}
	.st8{opacity:0.1;}
	.st9{fill:#F569BC;}
	.st10{fill:#F7DF1E;}
	.st11{fill:url(#SVGID_1_);}
	.st12{fill:#4F4D59;}
	.st13{fill:#C48C96;}
	.st14{fill:#714B4F;}
	.st15{fill:#BA7855;}
	.st16{fill:#503F43;}
	.st17{fill:#E44D26;}
	.st18{fill:#F16529;}
	.st19{fill:#EBEBEB;}
	.st20{fill:#FFFFFF;}
	.st21{fill:url(#SVGID_2_);}
	.st22{opacity:5.000000e-02;enable-background:new    ;}
	.st23{fill:#264DE4;}
	.st24{fill:#2965F1;}
	.st25{fill:#47465A;}
	.st26{opacity:0.3;fill:#FFFFFF;enable-background:new    ;}
	.st27{fill:#E1A0A7;}
	.st28{fill:#8F5A6A;}
	.st29{opacity:5.000000e-02;}
</style>
<title>static_assets</title>
<ellipse class="st0" cx="794.5" cy="571.7" rx="231.2" ry="44.9"/>
<path class="st1" d="M739.6,188.3c0,0-24.8,13.1-49.8-38.9"/>
<path class="st1" d="M629.7,211.5c0,0,52.6-1.9,55.6-25.2"/>
<path class="st2" d="M977.9,559.4c2-1.6,3.5-3.8,4.2-6.3c0.5-2.5-0.5-5.5-2.9-6.4c-2.7-1-5.6,0.8-7.7,2.7c-2.2,1.9-4.7,4-7.5,3.6
	c3-2.7,4.3-6.8,3.5-10.7c-0.1-0.8-0.5-1.6-1-2.2c-1.5-1.6-4.2-0.9-6,0.3c-5.7,4-7.3,11.7-7.3,18.7c-0.6-2.5-0.1-5.1-0.1-7.7
	s-0.7-5.5-2.9-6.8c-1.3-0.7-2.9-1.1-4.4-1c-2.6-0.1-5.4,0.2-7.2,2c-2.2,2.3-1.6,6.2,0.3,8.7c1.9,2.5,4.8,4.2,7.4,5.9
	c2.1,1.3,3.9,3,5.3,5c0.2,0.3,0.3,0.6,0.4,0.9h16C971.6,564.5,974.9,562.2,977.9,559.4z"/>
<path class="st0" d="M64,456.9c34.8,44.3,21.3,108.9-0.8,160.7c-7.4,17.3-15.8,35.7-12.7,54.3c3.8,22.7,24.1,39.4,45.4,48.1
	c38.8,16.1,85.3,12.2,121-10c30.8-19.2,52.9-50.4,84.3-68.7c52.5-30.6,119.3-19.1,176.3,2c40.3,14.9,84.4,34.4,124.5,18.7
	c28.2-10.9,47.7-37.7,58.3-66c5.1-13.7,8.8-28.4,18.6-39.4c5.8-6.4,13.4-11,21.2-14.9c71.1-35.2,160.8-16.4,229.8-55.4
	c46.6-26.4,76.4-76.2,89.7-128s11.7-106.3,8.3-159.8c-2.4-38-6.7-78.5-30.9-107.8c-25.7-31-69.7-42.5-109.6-36.6
	c-39.8,5.9-75.9,27-107.7,51.7c-39.7,30.9-76.5,69.4-125.2,82c-33.2,8.5-68.1,3.9-102.3,2.3c-57.2-2.7-114.5,3.3-171.4,9.8
	c-54.5,6.3-109.4,13.2-161.2,31c-36.7,12.5-66.2,35.3-100.8,51.2c-22.6,10.4-47.3,13.2-68.7,26.4c-26.4,16.3-50.5,44.6-43.7,77.7
	C12.5,417.7,45.5,433.5,64,456.9z"/>
<ellipse class="st0" cx="507.6" cy="412" rx="467.7" ry="44.9"/>
<path class="st3" d="M384.4,398l-3.7,5.3c0,0,4,5.3,4.4,6c0.4,0.7,11.6-0.3,11.6-0.3l1-4l-1.7-4.7L384.4,398z"/>
<polygon class="st4" points="261.2,395 253.9,396.3 258.6,405.3 263.6,408 268.2,411.3 269.6,407.6 266.2,400.6 "/>
<path class="st5" d="M381.1,308.4c0,0,39,9.3,46.3,19.7c0,0,6.7,5.7,0,16c-6.7,10.3-16,33.6-16,33.6s-6.7,22.6-9.3,24.3
	s-18,3-19.3-3.3c0,0,8.7-13.6,8.7-20c0-6.3,14.3-36.3,14.3-36.3s-32.6-3.7-42.9-1.3C352.4,343.5,367.4,304.8,381.1,308.4z"/>
<path class="st6" d="M381.1,308.4c0,0,39,9.3,46.3,19.7c0,0,6.7,5.7,0,16c-6.7,10.3-16,33.6-16,33.6s-6.7,22.6-9.3,24.3
	s-18,3-19.3-3.3c0,0,8.7-13.6,8.7-20c0-6.3,14.3-36.3,14.3-36.3s-32.6-3.7-42.9-1.3C352.4,343.5,367.4,304.8,381.1,308.4z"/>
<path class="st5" d="M373.1,317.4c-0.1,1.9-0.3,4.1-0.6,6.5c-2.1,17-9.1,42.2-9.1,42.2s-7,15-9,24.6c-2,9.7-15.7,12-15.7,12
	s-37.3,4.4-45,2.7s-19.7,5-25.6,4c-5.9-1-9.7-15-9.7-15c10.3,0.1,20.5-2.1,30-6.3c15.3-7,37.3-3.7,37.3-3.7c3.3-1,6.1-3.2,7.7-6.3
	c2.3-5,2.3-35.3,1.7-37.3c-4.4-13.1-4-21.5-2.8-26.5c0.4-2.1,1.4-4.2,2.8-5.8L373.1,317.4z"/>
<path class="st6" d="M373.1,317.4c-0.1,1.9-0.3,4.1-0.6,6.5c-3.3,0.3-12.7,0.5-19.7-3.8c-6.6-4-16.1-5.4-20.4-5.8
	c0.4-2.1,1.4-4.2,2.8-5.8L373.1,317.4z"/>
<path class="st3" d="M377.7,313.2c-1.6,4.4-3.9,9.5-3.9,9.5s-12.3,1.7-21-3.7s-22.6-6-22.6-6c2.3-1.4,3.8-5.6,4.7-9.3
	c0.5-2.1,0.9-4.2,1.2-6.3c0,0,40.9,8.3,42.7,9.7C379.4,307.6,378.8,310.3,377.7,313.2z"/>
<path class="st4" d="M450.7,172.9l-49.7,30l-4.9,3v-14.6l3.4-1.6l41.9-20c0,0,2-36.3,7.3-30.6C454,144.6,450.7,172.9,450.7,172.9z"
	/>
<path class="st6" d="M401,202.9l-4.9,3v-14.6l3.4-1.6C399.7,194,400.2,198.5,401,202.9z"/>
<path class="st7" d="M362.8,208.3l35.6-20.6c0,0,0.7,20,4.7,23c0,0-14.6,4.4-20.3,13.6L362.8,208.3z"/>
<path class="st6" d="M362.8,208.3l35.6-20.6c0,0,0.7,20,4.7,23c0,0-14.6,4.4-20.3,13.6L362.8,208.3z"/>
<path class="st4" d="M450.4,225.9c0,0-16.9,7.4-28.2,10.1c-2.5,0.8-5.2,1.1-7.8,0.9c-7.7-1.3,2-10.9,2-10.9l4-0.6l21.6-3.4
	c0,0,2.3-33.3,6.3-30.6S450.4,225.9,450.4,225.9z"/>
<path class="st4" d="M378.8,195.9c0,0-14.3,10.7-9,24c5.3,13.3-27.6-8-27.6-8s10.7-16,13-28C357.4,171.9,378.8,195.9,378.8,195.9z"
	/>
<path class="st6" d="M377.7,313.2c-6.2-2.3-12.7-3.8-19.2-4.5c-9.6-1.1-18.4-2.9-23.5-5c0.5-2.1,0.9-4.2,1.2-6.3
	c0,0,40.9,8.3,42.7,9.7C379.4,307.6,378.8,310.3,377.7,313.2z"/>
<path class="st6" d="M422.2,235.9c-2.5,0.8-5.2,1.1-7.8,0.9c-7.7-1.3,2-10.9,2-10.9l4-0.6C422.1,227.9,423.8,231.9,422.2,235.9z"/>
<path class="st7" d="M355.5,201.9c0,0-13-0.3-17.6,5c-4.7,5.3-3.7,19.7-3.7,19.7s-1,28.8,6.3,44.8c0.2,0.5,0.3,1.1,0.1,1.7
	c-0.1,0.2-0.1,0.1-0.1,0.1s-4.7,21-9.3,24.6c-4.7,3.7,10,8,27.3,10c17.4,2,24.3,7,24.3,7s3-3.3,3.3-10.7c0.3-7.4-4.6-60.9-4.6-60.9
	s18.3,4.7,29.3-1c0,0,5,2.7,9.7-4.7c4.7-7.3-3.3-15.3-3.3-15.3s-7.3,7.3-27.6-2.3C369.2,210.2,361.8,201.5,355.5,201.9z"/>
<path class="st3" d="M255.9,395.7h-4v5.7l4,9c0,0,5.3,1,5.7,1c0.3,0,4.7-1,4.7-1l1.3-2.3C267.6,408,252.9,402.3,255.9,395.7z"/>
<path class="st7" d="M381.1,401l-6,13.3l25.3,12l20,0.7c0,0,1.7-4.7-5-7l-5.3-1c0,0-7-12.7-7.7-18.6c0,0-6.7,1.3-7.7,6.3
	C394.7,406.6,385.4,411.3,381.1,401z"/>
<path class="st7" d="M252.9,394.3l-2,1.7l-8.9,7.3l20.6,27.3c0,0,11.6,5,17,0c0,0,3.3-3.3-4-6c0,0-5.7,1-5.7-4.7s1.3-11.6,3.3-13
	c0,0-5-1.7-6.3-0.3c-1,1.1-1.9,2.4-2.7,3.7C264.2,410.4,252.2,405.6,252.9,394.3z"/>
<path class="st6" d="M354.5,184.6c-0.3,1.7-0.8,3.4-1.3,5c3.6,8.6,13.4,12.9,22.2,9.5c0.9-0.9,1.8-1.7,2.8-2.5
	C378.1,196.6,356.8,172.6,354.5,184.6z"/>
<path class="st6" d="M352.6,229c0,0,10.3,13.6,25.3,14"/>
<g class="st8">
	<path d="M414.3,242.4c-0.2-0.1-0.4-0.1-0.6-0.2c-0.3,0.2-0.6,0.3-1,0.5C413.3,242.6,413.8,242.5,414.3,242.4z"/>
	<path d="M417.9,223.6c-0.4-0.5-0.7-0.9-1.2-1.3c0,0-2.2,2.2-7.6,2.6C412.1,225.1,415.1,224.7,417.9,223.6z"/>
	<path d="M384.4,243.2l0.1,0.7c4.4,0.8,8.9,1.2,13.3,1.1C393.3,244.8,388.8,244.2,384.4,243.2z"/>
	<path d="M361.4,307.8c-17.3-2-32-6.3-27.3-10s9.3-24.6,9.3-24.6s0,0.1,0.1-0.1c0.2-0.5,0.2-1.1-0.1-1.7
		c-7.3-16.1-6.3-44.8-6.3-44.8s-1-14.3,3.7-19.7c3.5-4,11.5-4.8,15.5-5c-0.4,0-0.7,0-1.1,0c0,0-13-0.3-17.6,5
		c-4.7,5.3-3.7,19.7-3.7,19.7s-1,28.8,6.3,44.8c0.2,0.5,0.3,1.1,0.1,1.7c-0.1,0.2-0.1,0.1-0.1,0.1s-4.6,20.9-9.3,24.6
		c-4.7,3.7,10,8,27.3,10c17.4,2,24.3,7,24.3,7c0.3-0.4,0.7-0.9,0.9-1.3C380,311.8,373,309.1,361.4,307.8z"/>
</g>
<circle class="st4" cx="369.8" cy="182.2" r="17.3"/>
<path class="st6" d="M394.4,174.5c-1.4,3.6-5.7,4.9-9.5,5.9c-5.4,1.3-11.1,2.6-16.3,0.6c-0.7-0.4-1.4-0.5-2.2-0.4
	c-0.6,0.2-1.1,0.7-1.4,1.3c-5.7,8-4.7,18.8-6.2,28.5c-0.5,3-1.2,6.2-3.3,8.4c-4,4.4-11.5,4.2-15.2,8.9c-2.4,3.1-2.4,7.3-2.4,11.2
	c0,4.2,0,8.3-0.1,12.5c-0.1,2.7-0.2,5.6-1.4,8c-2.1,4.1-6.8,6.1-11.1,7.7c-2.7,1-5.5,2-8.4,1.7c-2.9-0.3-5.8-2.2-6.1-5.1
	c-0.5-3.9,3.5-6.6,6.3-9.5c4.4-4.5,6.3-11,6.4-17.4c0.2-2.6-0.2-5.1-1.1-7.5c-1-2.5-2.8-4.6-3.9-7c-3.4-7.5,0.8-16.3,5.8-22.9
	c5-6.6,11.1-13,12.2-21.2c0.1-1.8,0.3-3.5,0.8-5.3c0.8-2.4,2.6-9,4.6-10.5c3.2-2.4,7-4,10.9-4.5c3.1-0.4,6.2-0.3,9.3-0.9
	c3.6-0.7,6.9-2.4,10.4-3c7.7-1.4,16.1,7.6,19.5,14.7C392.8,170.8,395.3,172.3,394.4,174.5z"/>
<path class="st9" d="M394.4,173.8c-1.4,3.6-5.7,4.9-9.5,5.9c-5.4,1.3-11.1,2.6-16.3,0.6c-0.7-0.4-1.4-0.5-2.2-0.4
	c-0.6,0.2-1.1,0.7-1.4,1.3c-5.7,8-4.7,18.8-6.2,28.5c-0.5,3-1.2,6.2-3.3,8.4c-4,4.4-11.5,4.2-15.2,8.9c-2.4,3.1-2.4,7.3-2.4,11.2
	c0,4.2,0,8.3-0.1,12.5c-0.1,2.7-0.2,5.6-1.4,8c-2.1,4.1-6.8,6.1-11.1,7.7c-2.7,1-5.5,2-8.4,1.7c-2.9-0.3-5.8-2.2-6.1-5.1
	c-0.5-3.9,3.5-6.6,6.3-9.5c4.4-4.5,6.3-11,6.4-17.4c0.2-2.6-0.2-5.1-1.1-7.5c-1-2.5-2.8-4.6-3.9-7c-3.4-7.5,0.8-16.3,5.8-22.9
	c5-6.6,11.1-13,12.2-21.2c0.1-1.8,0.3-3.5,0.8-5.3c0.8-2.4,2.6-9,4.6-10.5c3.2-2.4,7-4,10.9-4.5c3.1-0.4,6.2-0.3,9.3-0.9
	c3.6-0.7,6.9-2.4,10.4-3c7.7-1.4,16.1,7.6,19.5,14.7C392.8,170.1,395.3,171.6,394.4,173.8z"/>
<path class="st10" d="M450.4,140.5h287.8v287.8H450.4V140.5z"/>
<path d="M526,381.1l22-13.3c4.3,7.5,8.1,13.9,17.4,13.9c8.9,0,14.5-3.5,14.5-17v-92h27V365c0,28-16.4,40.8-40.4,40.8
	C545,405.8,532.4,394.6,526,381.1 M621.7,378.1l22-12.8c5.8,9.5,13.3,16.4,26.7,16.4c11.2,0,18.4-5.6,18.4-13.3
	c0-9.3-7.3-12.6-19.7-18l-6.8-2.9c-19.5-8.3-32.5-18.7-32.5-40.8c0-20.3,15.5-35.7,39.6-35.7c17.2,0,29.5,6,38.4,21.6l-21.1,13.5
	c-4.6-8.3-9.7-11.6-17.4-11.6c-7.9,0-12.9,5-12.9,11.6c0,8.1,5,11.4,16.6,16.4l6.8,2.9c23,9.8,35.9,19.9,35.9,42.5
	c0,24.3-19.1,37.7-44.8,37.7C645.8,405.7,629.6,393.7,621.7,378.1"/>
<linearGradient id="SVGID_1_" gradientUnits="userSpaceOnUse" x1="867.999" y1="40.7287" x2="867.999" y2="411.0035" gradientTransform="matrix(1 0 0 -1 -84.99 646.93)">
	<stop  offset="0" style="stop-color:#808080;stop-opacity:0.25"/>
	<stop  offset="0.54" style="stop-color:#808080;stop-opacity:0.12"/>
	<stop  offset="1" style="stop-color:#808080;stop-opacity:0.1"/>
</linearGradient>
<path class="st11" d="M864.4,588.1c0,0-11.2,0.8-18.2-11.2c-1.4-2.4-3-4.7-4.8-6.8c-2.2-3.7-3.4-7.9-3.4-12.2
	c0.4-8.9-8.9-57.7-8.9-57.7s1.2-18.6-8.1-30.2c-6.1-7.7-14.9-29.5-20.2-43.7c0.4,0.3,0.8,0.5,1.2,0.7l-0.2-1.2h0.2l-2.7-15.1
	c-4-4.6-7.4-9.7-10-15.2l0.6-0.1l8.2-1.7c0,0,13.4-19,14.2-28.3h1.1h1.5c12.4-0.1,24.7,0.6,37,1.9l0,0c0-0.1-0.1-0.3-0.2-0.7l0,0
	c-0.5-1.9-0.9-3.8-1.2-5.7h0.8l7.7-0.5c0,0,26.3-29.4,16.7-34.9c-9.7-5.4-19.8,24.4-19.8,24.4l-3.3,0.6l-0.9,0.2
	c0.1-0.1,0.2-0.3,0.3-0.4c0.1-0.1-43-1.9-49.6-12.4c0,0-19-15.1-19.8-25.2c-0.3-4.2-2.9-8-6.8-9.7c-2.3-1.1-4.9-1.6-7.5-1.4
	l-8.9,0.6l0.6,1.1h-0.3c-0.6-1.3-1-2.6-1.4-3.9h0.2c-0.1-0.3-0.1-0.5-0.2-0.8c11.2-2.7,18.2-13.9,15.6-25.2c0-0.2-0.1-0.4-0.2-0.6
	c0.9,0.1,1.8,0.1,2.6-0.1c3.3-0.7,5.6-4,5.7-7.3c0-0.2,0-0.4,0-0.6c0,0,0-0.1,0-0.1c-0.1-3.4-1.7-6.6-4.3-8.6
	c-1.8-1.5-3.9-2.5-5.5-4.2c-1.9-2-3-4.6-4.5-6.9c-2.5-3.8-6.2-6.7-10.5-8.2c-3.2-1.1-7.1-1.2-9.6,1.1c-1.3,1.2-2,2.9-3.4,3.9
	c-2,1.5-4.8,1-7.3,1.3c-4.6,0.7-8.6,3.7-10.5,7.9c-1.2,2.6-1.8,5.5-1.7,8.3c0,2,0.2,3.9,0.7,5.9c0.5,1.9,1.2,3.7,1.7,5.6
	c1.1,3.9,1.3,8.1,2.6,12c0.8,2.9,2.5,5.4,4.8,7.4l-0.4,1.6c-0.2,0-6.3,1.3-10.4,10.5c-3.3,7.2-14.4,14.6-19.4,17.6
	c-1.8,1.1-3.2,3-3.7,5.1c-0.5,2.1-0.7,4.3-0.6,6.4c-0.1,4.7,0.9,11.1,4.6,19.3c8.5,18.6,14.7,26.7,14.7,26.7S720,383,720,389
	c0,4.5-0.3,8.9-1.3,11.2c-0.8,1.9-1.1,6.7-1,12.2c0,10.5,1,24.2,1,24.2s3,0.6,7.5,1.2l2.9,50.2c0.4,6.1-1.6,12.1-5.5,16.8
	c-2,2.5-4.3,4.7-6.9,6.6c-8.1,5.8-25.6,67-25.6,67s0.9,0,2.3,0.2l-5.4,15c0,0,21.4,16.4,34.4,11.9c1.4-0.5,2.9-0.7,4.4-0.6
	c2.6,0,8.1-2,5-4.7c-5.9-5.4-11.5-11.2-16.7-17.4c0.4,0.2,0.8,0.4,1.2,0.7v-0.1l0.2,0.1c0,0,0-0.6,0.1-1.6l-0.2-0.1
	c0.4-4,1.6-14.2,4.1-15.4c3.1-1.6,26-46.9,26-46.9l22.9-58.9c0,0,18.2,31.4,33.7,36.8v13.1c0,0,8.5,38.7,11.6,43s0,21.3,0,21.3
	c0.6,0.7,1.3,1.3,2.1,1.8l-2.5,14c0,0,17.8-0.8,48,8.5C862.5,599.3,874.1,594.3,864.4,588.1z M793.1,385.4l-3.8,0.9l-0.7,0.2
	c-0.1-0.5-0.1-0.7-0.1-0.7c-0.9,0.4-1.8,0.6-2.7,0.7c-1.3-4.2-2.1-8.6-2.3-13.1c-1.3-5.3-2-10.7-2.3-16.2c0-2.8,0.5-5.3,1.5-6.7
	l1.3,0.1l0.9,0.8l0.1,0.1l0.4,0.4l0,0l0.5,0.4l0.1,0.1l0.5,0.4l0.1,0.1l0.5,0.4l0,0l0.6,0.5l0.1,0.1l0.6,0.5l0,0l0.6,0.5l0.1,0.1
	l0.7,0.5l0.1,0.1l0.6,0.5l0.1,0.1l0.7,0.5l0.2,0.1l0.8,0.5h0.1l0.7,0.5l0.2,0.1l0.8,0.5l0.2,0.1l0.7,0.5l0.1,0.1l0.9,0.5l0.2,0.1
	l0.9,0.5h0.1l0.9,0.5l0.2,0.1l0.9,0.5l0.2,0.1l0.9,0.4l0.2,0.1l1,0.4l0.2,0.1l1,0.4l0,0C796.3,369.6,793.1,385.4,793.1,385.4z"/>
<path class="st12" d="M697.6,569.3l-7.2,20c0,0,19.7,15.1,32.5,12c1.9-0.5,3.9-0.8,5.9-1c2.6-0.2,7.2-2.1,4.4-4.6
	c-9.1-7.9-21.2-22.7-21.2-22.7L697.6,569.3z"/>
<path class="st12" d="M817.1,567.5l-3.4,19.3c0,0,17.4-0.8,46.9,8.3c0,0,11.4-4.9,1.9-10.9c0,0-10.9,0.8-17.8-10.9
	c-6.8-11.7-10.9-10.2-10.9-10.2L817.1,567.5z"/>
<path class="st13" d="M727.1,427.5l3.3,58.7c0.4,6.3-1.7,12.4-5.8,17.2c-1.8,2.2-3.9,4.1-6.2,5.8c-7.9,5.7-25,65.4-25,65.4
	s19.3,1.1,24.6,4.9c0,0,1.1-15.1,4.2-16.6c3.1-1.5,25.3-45.8,25.3-45.8l22.3-57.5c0,0,17.8,30.6,32.9,35.9v12.9
	c0,0,8.3,37.8,11.4,42s0,20.8,0,20.8s8.7,10.9,28.7-0.8c0,0-6.4-7.2-6-15.9s-8.7-56.4-8.7-56.4s1.1-18.2-7.9-29.5
	c-9-11.4-24.1-54.8-24.1-54.8l-10.4-22.4L727.1,427.5z"/>
<g class="st8">
	<path d="M697,574.6c0,0,17-59.8,25-65.4c2.4-1.8,4.6-3.9,6.6-6.2c3.9-4.7,5.8-10.7,5.5-16.8l-3.3-58.7l55.8-34.4l-0.8-1.6l-58.4,36
		l3.3,58.7c0.4,6.1-1.6,12.1-5.5,16.8c-1.9,2.3-4.1,4.4-6.6,6.2c-7.9,5.7-25,65.4-25,65.4s19.3,1.1,24.6,4.9c0,0,0-0.6,0.1-1.5
		C710.9,575.5,697,574.6,697,574.6z"/>
	<path d="M817.7,571.2c0,0,3-16.6,0-20.8c-3-4.1-11.4-42-11.4-42v-12.9c-15.1-5.3-32.9-35.9-32.9-35.9l-1.3,3.4
		c5.1,8.1,18.8,28.3,30.8,32.5v12.9c0,0,8.3,37.8,11.4,42c3,4.2,0,20.8,0,20.8s4.2,5.3,13.5,4.6
		C820.9,575.3,817.7,571.2,817.7,571.2z"/>
</g>
<path class="st14" d="M857.2,361.7l-7.4,0.5l-3.9,0.3V353l5.1-0.9l3.2-0.6c0,0,9.8-29.1,19.3-23.8
	C882.9,332.9,857.2,361.7,857.2,361.7z"/>
<path class="st14" d="M738.1,283.7c0,0-4.9,18.9-6.4,30.6s35.2,2.3,35.2,2.3s-14-17-6-26.1L738.1,283.7z"/>
<path class="st3" d="M777.8,362.5l0.8,7.2l-11.7-0.8l-11.7-10.2l-11.7-32.9l-7.5-11.7l-5.7-7.2l2.3-8.7c0,0,1,0.9,2.8,2.2
	c5.8,4.4,19.3,13.6,29.1,11c0.5-0.1,0.9-0.3,1.3-0.4l14.8,25.3L777.8,362.5z"/>
<path class="st6" d="M735.4,295.9c0,0-6,1.1-10.2,10.2c-3.2,7-14,14.2-18.8,17.1c-1.9,1.1-3.2,3-3.7,5.1c-1,4.3-1.3,12.3,3.9,23.9
	c8.3,18.2,14.4,26.1,14.4,26.1s1.5,18.2-0.8,23.4c-2.3,5.3,0,34.4,0,34.4s39.7,7.6,53,0c13.2-7.6,11.4-36.7,11.4-36.7
	s12.5,26.5,17,27.2L799,412c0,0-14.8-15.9-15.5-36.3c0,0-4.5-18.5-0.8-23.4c0,0,63.9,5.3,67.7,0.8c0,0-42-1.9-48.4-12.1
	c0,0-18.5-14.8-19.3-24.6c-0.2-3.8-2.4-7.1-5.7-8.9c-2.6-1.5-5.5-2.1-8.5-1.9l-8.5,0.6c0,0,14.8,26.1,14,29.5
	c-0.8,3.4,0.8,31,0.8,31s-17.1-36.7-24.6-40.8c-7.5-4.2-16.3-21.3-16.3-21.3L735.4,295.9"/>
<path class="st6" d="M777.8,362.5l0.8,7.2l-11.7-0.8l-11.7-10.2l-11.7-32.9l-7.5-11.7l-5.7-7.2l2.3-8.7c0,0,1,0.9,2.8,2.2l-0.5,3
	c0,0,8.7,17.1,16.3,21.3c7.5,4.2,24.6,40.8,24.6,40.8s-1.5-27.6-0.8-31c0.5-2.3-6.1-15.1-10.4-23c0.5-0.1,0.9-0.3,1.3-0.4l14.8,25.3
	L777.8,362.5z"/>
<path class="st6" d="M849.8,362.2l-3.9,0.3V353l5.1-0.9C849.2,354.4,849.3,358.6,849.8,362.2z"/>
<path class="st13" d="M735.4,294.7c0,0-6,1.1-10.2,10.2c-3.2,7-14,14.2-18.8,17.1c-1.9,1.1-3.2,3-3.7,5.1c-1,4.3-1.3,12.3,3.9,23.9
	c8.3,18.2,14.4,26.1,14.4,26.1s1.5,18.2-0.8,23.4c-2.3,5.3,0,34.4,0,34.4s39.7,7.6,53,0c13.2-7.6,11.4-36.7,11.4-36.7
	s12.5,26.4,17,27.2l-2.6-14.8c0,0-14.8-15.9-15.5-36.3c0,0-4.5-18.5-0.8-23.4c0,0,14.8,15.9,31.4,15.5c12.1-0.1,24.3,0.6,36.3,1.9
	c0,0-3.8-12.1,0-16.6c0,0-42-1.9-48.4-12.1c0,0-18.5-14.8-19.3-24.6c-0.2-3.8-2.4-7.1-5.7-8.9c-2.6-1.5-5.5-2.1-8.5-1.9l-8.5,0.6
	c0,0,14.8,26.1,14,29.5c-0.8,3.4,0.8,31,0.8,31s-17.1-36.7-24.6-40.9c-7.5-4.2-16.3-21.2-16.3-21.2L735.4,294.7"/>
<path class="st6" d="M727.1,334.5c0,0,9.1,30.6,14.4,34.4s37.4,23.1,46.9,18.5c0,0,2.3,11.4-1.1,14c0,0-35.3-1.4-35.6-1.5
	c0,0-23.1-3-26.9-14.4c-3.8-11.3-8.3-30.6-8.3-30.6L727.1,334.5z"/>
<ellipse class="st15" cx="775.5" cy="367.2" rx="1.3" ry="1.9"/>
<ellipse class="st15" cx="779.3" cy="380.4" rx="1.3" ry="1.9"/>
<g class="st8">
	<path d="M722.9,434.6c0,0-2.3-29.1,0-34.4c2.3-5.3,0.8-23.4,0.8-23.4s-6-7.9-14.4-26.1c-5.3-11.6-4.9-19.6-3.9-23.9
		c0.5-2.1,1.8-4,3.7-5.1c4.8-3,15.6-10.2,18.8-17.1c2.4-5.1,5.3-7.7,7.4-9l0.1-0.8c0,0-6,1.1-10.2,10.2c-3.2,7-14,14.2-18.8,17.1
		c-1.9,1.1-3.2,3-3.7,5.1c-1,4.3-1.3,12.3,3.9,23.9c8.3,18.2,14.4,26.1,14.4,26.1s1.5,18.2-0.8,23.4c-2.3,5.3,0,34.4,0,34.4
		s28.4,5.4,45.1,2.5C748.5,439.6,722.9,434.6,722.9,434.6z"/>
	<path d="M774,334.5c-0.5,2.3,0,16,0.4,24.4c1.8,3.7,3,6.2,3,6.2s-1.5-27.6-0.8-31c0.7-3.3-12.6-27-13.9-29.3L760,305
		C760,305,774.8,331.1,774,334.5z"/>
	<path d="M816.7,366.2c-16.6,0.4-31.4-15.5-31.4-15.5c-0.4,0.6-0.8,1.3-1,2c4.4,4.1,16.4,14.1,29.7,13.8c12.1-0.1,24.3,0.6,36.3,1.9
		c0,0-0.1-0.3-0.2-0.7C839.1,366.7,827.9,366.1,816.7,366.2z"/>
	<path d="M787.2,398c0,0,0.2,2.4,0.1,5.9c3.9,7.8,11.1,21.2,14.3,21.7l-0.6-3.1C795.5,415.6,787.2,398,787.2,398z"/>
</g>
<path class="st14" d="M797.8,394.2l-8,1.7l-6.3,1.3l3.4-9.5l2.4-0.6l3.7-0.9c0,0,5.3-26.5,15.9-24.6
	C819.4,363.5,797.8,394.2,797.8,394.2z"/>
<path class="st6" d="M789.8,395.9l-6.3,1.3l3.4-9.5l2.4-0.6C789.7,390.1,789.9,393,789.8,395.9z"/>
<path class="st13" d="M727.1,333.7c0,0,9.1,30.6,14.4,34.4c5.3,3.8,37.4,23.1,46.9,18.5c0,0,2.3,11.4-1.1,14c0,0-35.3-1.4-35.6-1.5
	c0,0-23.1-3-26.9-14.4c-3.8-11.3-8.3-30.6-8.3-30.6L727.1,333.7z"/>
<path class="st6" d="M738.4,284.5c0,0-0.8,3-1.8,7.3c4.3,8.2,13.5,12.4,22.5,10.4c-0.9-3.9-0.7-7.8,1.9-10.8L738.4,284.5z"/>
<circle class="st14" cx="754.3" cy="281.5" r="20.4"/>
<path class="st6" d="M772.1,275.9c1.5,0.4,3,0.5,4.5,0.3c3.2-0.9,5.5-3.8,5.5-7.1c-0.1-3.3-1.6-6.4-4.2-8.4
	c-1.7-1.4-3.8-2.5-5.4-4.1c-1.9-1.9-2.9-4.5-4.4-6.7c-2.4-3.7-6-6.5-10.2-8c-3.1-1.1-7-1.2-9.4,1.1c-1.2,1.2-2,2.8-3.3,3.8
	c-2,1.4-4.7,1-7.2,1.3c-4.5,0.7-8.3,3.6-10.3,7.7c-1.9,4.1-2.2,8.8-1,13.1c0.5,1.9,1.2,3.7,1.7,5.5c1.1,3.8,1.3,7.9,2.5,11.7
	c1.2,3.8,3.8,7.5,7.6,8.7c-0.3-4.3,0.5-8.5,2.4-12.3c0.3-0.8,0.9-1.5,1.7-1.9c0.7-0.2,1.4-0.2,2.1,0c4.8,0.7,9.7-0.3,13.8-2.8
	c1.5-0.9,3.7-3.9,5.3-4.2C765.9,273,770,275.4,772.1,275.9z"/>
<path class="st16" d="M772.1,275.1c1.5,0.4,3,0.5,4.5,0.3c3.2-0.9,5.5-3.8,5.5-7.1c-0.1-3.3-1.6-6.4-4.2-8.4
	c-1.7-1.4-3.8-2.5-5.4-4.1c-1.9-1.9-2.9-4.5-4.4-6.7c-2.4-3.7-6-6.5-10.2-8c-3.1-1.1-7-1.2-9.4,1.1c-1.2,1.2-2,2.8-3.3,3.8
	c-2,1.4-4.7,1-7.2,1.3c-4.5,0.7-8.3,3.6-10.3,7.7c-1.9,4.1-2.2,8.8-1,13.1c0.5,1.9,1.2,3.7,1.7,5.5c1.1,3.8,1.3,7.9,2.5,11.7
	c1.2,3.8,3.8,7.5,7.6,8.7c-0.3-4.3,0.6-8.5,2.5-12.3c0.3-0.8,0.9-1.5,1.7-1.9c0.7-0.2,1.4-0.2,2.1,0c4.8,0.7,9.7-0.3,13.8-2.8
	c1.5-0.9,3.7-3.9,5.3-4.2C765.9,272.3,770,274.7,772.1,275.1z"/>
<path class="st17" d="M975.9,207.7l-16.7,186.7l-74.9,20.8l-74.7-20.8l-16.6-186.7H975.9z"/>
<path class="st18" d="M884.4,399.3l60.5-16.8L959.1,223h-74.8V399.3z"/>
<path class="st19" d="M852,268.8h32.4v-22.9H827l0.5,6.1l5.6,63.1h51.3v-22.9h-30.3L852,268.8z M857.2,326.6h-23l3.2,36l46.9,13.1
	h0.1v-23.9h-0.1l-25.5-6.9L857.2,326.6z"/>
<path d="M810,156.9h11.6v11.5h10.6v-11.5h11.6v34.8h-11.6v-11.7h-10.6v11.7H810V156.9z M859.2,168.5h-10.2v-11.5h32.1v11.5h-10.2
	v23.3h-11.6L859.2,168.5L859.2,168.5L859.2,168.5z M886.2,156.9h12.1l7.5,12.2l7.5-12.2h12.1v34.8h-11.6v-17.3l-8,12.4h-0.2l-8-12.4
	v17.3h-11.4V156.9z M931.2,156.9h11.6v23.3h16.4v11.5h-28L931.2,156.9L931.2,156.9z"/>
<path class="st20" d="M884.3,315.1h28.2l-2.7,29.7l-25.5,6.9v23.9l47-13l0.3-3.9l5.4-60.3l0.6-6.1h-53.2V315.1L884.3,315.1z
	 M884.3,268.7L884.3,268.7l55.3,0.1l0.5-5.2l1.1-11.6l0.5-6.1h-57.4V268.7L884.3,268.7z"/>
<linearGradient id="SVGID_2_" gradientUnits="userSpaceOnUse" x1="307.3218" y1="-41.5165" x2="307.3218" y2="390.7184" gradientTransform="matrix(1 0 0 -1 -84.99 646.93)">
	<stop  offset="0" style="stop-color:#808080;stop-opacity:0.25"/>
	<stop  offset="0.54" style="stop-color:#808080;stop-opacity:0.12"/>
	<stop  offset="1" style="stop-color:#808080;stop-opacity:0.1"/>
</linearGradient>
<path class="st21" d="M304.6,345.5c-2.1-6.2-5.2-14.2-7.7-16c-0.1-0.1-0.3-0.2-0.5-0.3h-0.3v-7.7l-5.8,0.9c-0.9-2.8-1.6-5.6-2.1-8.5
	c1.1,1.1,2.8,1.5,4.3,0.9c-0.1-0.2-0.2-0.3-0.3-0.5l0.3-0.1c-0.9-1.6-1.4-3.4-1.4-5.2c0-1.7,0.3-3.3,0.8-4.9c1-3.6,2.8-6.9,3.7-10.4
	c0.6-2.3,0.9-4.7,0.9-7.1c0-4-0.9-8-2.7-11.6c-0.4-1-1.1-2-2-2.7c-0.8-0.4-1.6-0.9-2.5-1.2c-1.4-1-2.7-2.2-3.6-3.6
	c-4.1-5-9.6-8.6-15.7-10.5c-1.6-0.6-3.3-0.7-5-0.4c-3.9,1.1-5.3,5.8-8.4,8.3c-2.8,2.2-6.6,2.4-10,3.2c-3.5,0.6-6.8,2.3-9.3,4.9
	c-1.6,1.9-2.5,4.3-2.5,6.8c-0.2,2.4,0.9,4.6,2.8,6c2.2,1.4,4.9,1.8,7.3,1c-3.8,13.2,3.8,27,17,30.9c0.6,0.2,1.2,0.3,1.9,0.5l0.7,1.2
	l0,0c2.1,3.9,3.6,8,4.7,12.2c-5.3,3-11.1,5.8-14.6,6.1c-0.1,1.4-0.4,2.7-0.8,4c-0.8,3.3-2.4,6.4-4.6,9c-4.7,5.3-26.1,45.7-26.1,45.7
	s-0.7,1.6-1.8,4.4c-13.3,1.6-34.9,4-41,2.8l-23.7-22.6c0,0-7.7,5.9-7,13l-4.3-4.1c0,0-22.6,17.2,13.1,28.4l54.2,6.3
	c-5.2,15.6-10,33.7-8.5,43.6h0.4c1,0,2.1-0.1,3.1-0.2l-0.1,1.7l-5.2,93.4c0,0-1.2,17.2,14.8,24.9c0,0,19.6,57.6,11.9,64.1
	c0,0,0.9,0.5,2.5,1.2l-16.1,14.2c0,0-11.9,3-18.4,2.4c-2.4-0.3-4.6,1.2-5.2,3.5c0,0.1,0,0.2-0.1,0.4v0.2c0,0.1,0,0.3,0,0.4
	s0,0.1,0,0.1c0,0,0,0.2,0,0.3v0.1c0,0.1,0,0.3,0.1,0.4v0.1c0,0.1,0.1,0.3,0.1,0.4v0.1c0.1,0.1,0.1,0.3,0.2,0.4v0.1
	c0.1,0.1,0.2,0.3,0.2,0.4l0.1,0.1c0.1,0.1,0.2,0.3,0.3,0.4l0.1,0.1c0.1,0.1,0.3,0.3,0.4,0.4h0.1l0.4,0.4l0.1,0.1l0.5,0.4l0.1,0.1
	l0.6,0.4h0.1l0.7,0.3h0.1l0.8,0.3l0.2,0.1l0.9,0.3h0.1l0.9,0.2h0.1l1.1,0.2h0.2l1.1,0.2h0.2l1.3,0.1c2.4,0.2,5.7,0.3,9.5,0.2l0,0
	c0,0,0,0.1,0,0.1c0,0,0,0.2,0,0.3v0.1c0,0.1,0,0.3,0.1,0.4v0.1c0,0.1,0.1,0.3,0.1,0.4v0.1c0.1,0.1,0.1,0.3,0.2,0.4v0.1
	c0.1,0.1,0.2,0.3,0.2,0.4l0.1,0.1c0.1,0.1,0.2,0.3,0.3,0.4l0.1,0.1c0.1,0.1,0.3,0.3,0.4,0.4h0.1l0.4,0.4l0.1,0.1l0.5,0.4l0.1,0.1
	l0.6,0.4h0.1l0.7,0.3h0.1l0.8,0.3l0.2,0.1l0.9,0.3h0.1l0.9,0.2h0.1l1.1,0.2h0.2l1.1,0.2h0.2l1.3,0.1c15.4,1.2,64.7-2.4,64.7-2.4
	v-0.1l0,0v-0.2l0,0c0.5-2.3,2.9-15.7-5.5-25.5c0.3-0.3,0.5-0.5,0.7-0.8c0,0-6.6-11.3-3-14.8c3.6-3.6-17.4-64.7-17.4-64.7
	s-11.3-17.8-4.7-38c6.5-20.2-0.6-42.1-0.6-42.1s15.6-4.6,15.9-23.8c0-0.6,0-1.2,0-1.8c0.3,0,0.7,0.1,1,0.1c0.2,0,0.4,0,0.7,0
	c0,0-3-10.7,0.6-18.4s11.3-0.6,18.4-32c5.2-22.8,9.7-48.9,11.8-61.7C306.8,356,306.3,350.6,304.6,345.5z M169.2,412.2l-5.4-5.1
	c1.8,0.7,3.8,1.5,6,2.2l20.4,2.4C181.1,412.5,172.6,413,169.2,412.2L169.2,412.2z"/>
<path class="st4" d="M220.8,409.2c0,0-42,5.8-50.7,4.1l-23.3-22.2c0,0-22.2,16.9,12.8,28l65.3,7.6L220.8,409.2z"/>
<path class="st22" d="M220.8,409.2c0,0-42,5.8-50.7,4.1l-23.3-22.2c0,0-22.2,16.9,12.8,28l65.3,7.6L220.8,409.2z"/>
<path class="st23" d="M138.7,423.9l-90.7-25.2L27.7,172.1h222.1l-20.2,226.7L138.7,423.9z"/>
<path class="st24" d="M212.3,384.3l17.3-193.7h-90.8v214L212.3,384.3z"/>
<path class="st19" d="M74.1,274.7l2.5,27.8h62.2v-27.8H74.1z M69.1,218.4l2.5,27.8h67.2v-27.8L69.1,218.4L69.1,218.4z M138.8,346.9
	h-0.1l-31-8.4l-2-22.2h-28l3.9,43.7l57,15.8h0.1L138.8,346.9z"/>
<path d="M80,110.4h33.7v14.1H94.1v14.1h19.6v14.1H80V110.4z M120.5,110.4h33.7v12.2h-19.6v2.4h19.6v28.2h-33.7v-12.9H140V138h-19.6
	L120.5,110.4L120.5,110.4z M160.9,110.4h33.7v12.2h-19.7v2.4h19.6v28.2h-33.7v-12.9h19.6V138h-19.6v-27.6H160.9z"/>
<path class="st20" d="M203.3,274.7l5-56.3h-69.7v27.8h39.2l-2.5,28.4h-36.7v27.8h34.2l-3.3,36.1l-31,8.4v28.9l57-15.8l0.4-4.7
	l6.6-73.2L203.3,274.7L203.3,274.7z"/>
<path class="st25" d="M236,645.9L215.6,664c0,0-11.7,2.9-18.1,2.3c-6.4-0.6-9.3,9.9,5.8,11.1c15.2,1.2,63.5-2.3,63.5-2.3
	s4.7-18.7-9.3-29.1H236z"/>
<path class="st22" d="M236,645.9L215.6,664c0,0-11.7,2.9-18.1,2.3c-6.4-0.6-9.3,9.9,5.8,11.1c15.2,1.2,63.5-2.3,63.5-2.3
	s4.7-18.7-9.3-29.1H236z"/>
<path class="st26" d="M267.6,667c0,2.1-0.3,4.2-0.7,6.3c0,0-48.4,3.5-63.5,2.3c-7.3-0.6-10.4-3.3-10.9-5.9c-0.7,3,2,6.9,10.9,7.7
	c15.2,1.2,63.5-2.3,63.5-2.3C267.4,672.5,267.7,669.7,267.6,667z"/>
<path class="st4" d="M259.9,315.4c0,0,12.8,18.1,8.2,30.3c-4.7,12.2,24.5-12.8,24.5-12.8s-9.3-16.4-4.7-33.9L259.9,315.4z"/>
<path class="st25" d="M256.4,652.9L236,671c0,0-11.7,2.9-18.1,2.3c-6.4-0.6-9.3,9.9,5.8,11.1c15.2,1.2,63.5-2.3,63.5-2.3
	s4.7-18.7-9.3-29.1L256.4,652.9z"/>
<path class="st5" d="M262.2,648.9c-3,3.8-7.3,5.2-11.8,5.4c-10.2,0.5-21.4-5.4-21.4-5.4c7.6-6.4-11.7-63-11.7-63
	c-15.7-7.6-14.6-24.5-14.6-24.5l5.1-91.8l1.3-23.1l16.3-9.9l12.9,9.8l12.2,9.4c0.8,3,1.3,6,1.5,9.1c1.4,21.4-15.5,26.5-15.5,26.5
	s7,21.6,0.6,41.4c-6.4,19.8,4.7,37.3,4.7,37.3s21,60.6,17.5,64.1C255.8,637.8,262.2,648.9,262.2,648.9z"/>
<path class="st22" d="M262.2,648.9c-3,3.8-7.3,5.2-11.8,5.4c-10.2,0.5-21.4-5.4-21.4-5.4c7.6-6.4-11.7-63-11.7-63
	c-15.7-7.6-14.6-24.5-14.6-24.5l5.1-91.8l1.3-23.1l16.3-9.9l12.9,9.8l12.2,9.4c0.8,3,1.3,6,1.5,9.1c1.4,21.4-15.5,26.5-15.5,26.5
	s7,21.6,0.6,41.4c-6.4,19.8,4.7,37.3,4.7,37.3s21,60.6,17.5,64.1C255.8,637.8,262.2,648.9,262.2,648.9z"/>
<path class="st5" d="M282.6,655.8c-9.9,12.2-33.2,0-33.2,0c0.5-0.4,0.8-1,1-1.6c4.3-11.6-14.4-67.2-14.4-67.2
	c-15.7-7.6-17.5-25.6-17.5-25.6l-4.1-93.4l-0.5-12.1l24.5-9.4l7.5-2.9l25.1,19.2c1.1,4,1.6,8.1,1.6,12.2
	c-0.3,18.8-15.6,23.4-15.6,23.4s7,21.6,0.6,41.4s4.7,37.3,4.7,37.3s21,60.6,17.5,64.1S282.6,655.8,282.6,655.8z"/>
<path class="st6" d="M272.6,475.1c-5-0.7-15.2-6.8-20.5-10.1c-2-1.3-3.3-2.1-3.3-2.1s-5.2-14.6-19.2-3.5c-4.6,3.7-9.7,6.6-15.2,8.6
	c-2.1,0.7-4.3,1.3-6.5,1.6l1.3-23.1l16.3-9.9l12.9,9.8l7.5-2.9l25.1,19.2C272.1,466.9,272.6,471,272.6,475.1z"/>
<path class="st27" d="M304.1,363.2c-2.1,12.5-6.6,38.3-11.6,60.6c-7,30.9-14.6,23.9-18.1,31.5c-3.5,7.6-0.6,18.1-0.6,18.1
	c-5.8,0.6-25.1-12.2-25.1-12.2s-5.2-14.6-19.2-3.5c-14,11.1-25.1,10.5-25.1,10.5c-2.9-19.2,18.7-70.5,18.7-70.5s21-39.6,25.6-44.8
	c2.2-2.6,3.7-5.6,4.5-8.9c0.4-1.3,0.6-2.6,0.7-4c7.6-0.6,26.2-13.4,26.2-13.4l14.6-2.3v7.6c0.2,0.1,0.3,0.2,0.5,0.3
	c2.4,1.8,5.5,9.6,7.5,15.7C304.6,352.8,305,358.1,304.1,363.2z"/>
<path class="st4" d="M236,418l-7.5-0.9l-57.8-6.7c-35-11.1-12.8-28-12.8-28l23.3,22.2c6.7,1.3,33.1-1.8,44.9-3.3
	c3.5-0.5,5.8-0.8,5.8-0.8L236,418z"/>
<path class="st6" d="M292.5,339.3c0,0-15.2-12.2-37.9,27.4s-28,33.2-28,33.2s4.7,17.5,2.3,21c0,0,15.7-1.2,21.6,0
	c5.8,1.2,42-44.3,42-44.3S311.2,350.9,292.5,339.3z"/>
<path class="st6" d="M291.9,337c0,0-15.2-12.2-37.9,27.4s-28,33.2-28,33.2s18.1,19.8,23.9,21c5.8,1.2,42-44.3,42-44.3
	S310.6,348.6,291.9,337z"/>
<path class="st6" d="M228.4,417.1c0.2-4.3-1.4-11.9-2.3-15.8c3.5-0.5,5.8-0.8,5.8-0.8L236,418L228.4,417.1z"/>
<path class="st27" d="M292.5,338.1c0,0-15.2-12.2-37.9,27.4s-28,33.2-28,33.2s4.7,17.5,2.3,21c0,0,15.7-1.2,21.6,0
	c5.8,1.2,42-44.3,42-44.3S311.2,349.8,292.5,338.1z"/>
<path class="st6" d="M288.5,300.2l-28,16.3c1.2,1.7,2.3,3.5,3.3,5.3c1.6,0.3,3.3,0.5,4.9,0.5c7.5,0,10.9-7.8,15.5-13.1
	C283.8,305,287.2,304.9,288.5,300.2z"/>
<circle class="st4" cx="268" cy="296.7" r="24.5"/>
<path class="st6" d="M237.1,276.9c2.5-2.5,5.7-4.2,9.2-4.8c3.4-0.7,7.1-1,9.8-3.1c3.1-2.5,4.5-7.1,8.2-8.2c1.6-0.3,3.4-0.2,4.9,0.4
	c6.1,1.8,11.4,5.4,15.4,10.3c0.9,1.4,2.2,2.6,3.6,3.6c0.8,0.4,1.7,0.8,2.4,1.2c0.9,0.7,1.6,1.6,2,2.6c2.7,5.5,3.4,11.8,1.8,17.8
	c-1,3.5-2.7,6.8-3.7,10.3c-1,3.5-1.3,7.5,0.6,10.6c-1.8,0.9-4.1-0.2-5.2-1.9s-1.5-3.7-2.1-5.7c-1.2-3.8-3.3-7.2-6.3-9.8
	c-1.8-1.6-5.1-2.7-6.4-0.6c-0.5,0.8-0.5,1.8-0.9,2.7c-0.8,1.7-3.3,2-4.8,1.1c-1.5-1.1-2.6-2.7-3-4.5c-2.4-8.1-6.5-13.2-15.2-9.8
	c-3.3,1.3-7.1,2.2-10.2,0C233.3,286,234.1,280.2,237.1,276.9z"/>
<path class="st28" d="M237.1,276.3c2.5-2.5,5.7-4.2,9.2-4.8c3.4-0.7,7.1-1,9.8-3.1c3.1-2.5,4.5-7.1,8.2-8.2c1.6-0.3,3.4-0.2,4.9,0.4
	c6.1,1.8,11.4,5.4,15.4,10.3c0.9,1.4,2.2,2.6,3.6,3.6c0.8,0.4,1.7,0.8,2.4,1.2c0.9,0.7,1.6,1.6,2,2.6c2.7,5.5,3.4,11.8,1.8,17.8
	c-1,3.5-2.7,6.8-3.7,10.3c-1,3.5-1.3,7.5,0.6,10.6c-1.8,0.9-4.1-0.2-5.2-1.9c-1.1-1.7-1.5-3.7-2.1-5.7c-1.2-3.8-3.3-7.2-6.3-9.8
	c-1.8-1.6-5.1-2.7-6.4-0.6c-0.5,0.8-0.5,1.8-0.9,2.7c-0.8,1.7-3.3,2-4.8,1.1c-1.5-1.1-2.6-2.7-3-4.5c-2.4-8.1-6.5-13.2-15.2-9.8
	c-3.3,1.3-7.1,2.2-10.2,0C233.3,285.5,234.1,279.7,237.1,276.3z"/>
<path class="st22" d="M295.3,332h-11.8c0,0-23.3,11.7-23.9,11.1c-0.4-0.4-4,0.3-6.3,0.8c0.4-1.3,0.6-2.6,0.7-4
	c7.6-0.6,26.2-13.4,26.2-13.4l14.6-2.3v7.6C295,331.8,295.2,331.9,295.3,332z"/>
<path class="st26" d="M288,674c0,2.1-0.3,4.2-0.7,6.3c0,0-48.4,3.5-63.5,2.3c-7.3-0.6-10.4-3.3-10.9-5.9c-0.7,3,2,6.9,10.9,7.7
	c15.2,1.2,63.5-2.3,63.5-2.3C287.8,679.4,288.1,676.7,288,674z"/>
<g class="st29">
	<path d="M224,457c-7.9,6.2-14.8,8.7-19.4,9.8c0,0.4,0.1,0.9,0.2,1.3c0,0,11.1,0.6,25.1-10.5c2.2-1.9,4.7-3.2,7.5-3.9
		C234.3,452.3,229.9,452.4,224,457z"/>
	<path d="M303.1,347.7c-2.1-6.1-5.1-13.9-7.5-15.7c-0.1-0.1-0.3-0.2-0.5-0.3c0,0-4.8,0.2-4.7,0.3c2.4,1.8,4.7,9,6.8,15.2
		c1.7,5,2.1,10.3,1.3,15.5c-2.1,12.5-6.6,38.3-11.6,60.6c-7,30.9-14.6,23.9-18.1,31.5c-2.9,6.2-1.4,14.4-0.8,17.1
		c1.9,0.9,4,1.5,6.1,1.5c0,0-2.9-10.5,0.6-18.1c3.5-7.6,11.1-0.6,18.1-31.5c5.1-22.4,9.5-48.1,11.6-60.6
		C305.3,358,304.8,352.7,303.1,347.7z"/>
</g>
<path class="st2" d="M370.9,456.6c2-1.6,3.5-3.8,4.2-6.3c0.5-2.5-0.5-5.5-2.9-6.4c-2.7-1-5.6,0.8-7.7,2.7c-2.2,1.9-4.7,4-7.5,3.6
	c3-2.7,4.3-6.8,3.5-10.7c-0.1-0.8-0.5-1.6-1-2.2c-1.5-1.6-4.2-0.9-6,0.3c-5.7,4-7.3,11.7-7.3,18.7c-0.6-2.5-0.1-5.1-0.1-7.7
	c0-2.5-0.7-5.5-2.9-6.8c-1.3-0.7-2.9-1.1-4.4-1c-2.6-0.1-5.4,0.2-7.2,2c-2.2,2.3-1.6,6.2,0.3,8.7s4.8,4.2,7.4,5.9
	c2.1,1.3,3.9,3,5.3,5c0.2,0.3,0.3,0.6,0.4,0.9h16C364.6,461.7,367.9,459.4,370.9,456.6z"/>
<path class="st2" d="M400.3,662c2.5-2.4,4.9-5.2,5.7-8.6c0.7-3.4-0.7-7.5-4-8.7c-3.6-1.4-7.5,1.1-10.5,3.7c-3,2.6-6.3,5.5-10.2,4.9
	c4-3.7,5.9-9.2,4.8-14.5c-0.2-1.1-0.6-2.1-1.3-3c-2-2.2-5.7-1.2-8.1,0.5c-7.7,5.5-9.8,15.9-9.9,25.3c-0.8-3.4-0.1-6.9-0.1-10.4
	c0-3.5-1-7.3-3.9-9.2c-1.8-1-3.9-1.5-6-1.4c-3.5-0.1-7.3,0.2-9.7,2.8c-2.9,3.1-2.2,8.4,0.4,11.9c2.6,3.5,6.5,5.6,10,8
	c2.9,1.7,5.3,4,7.2,6.8c0.2,0.4,0.4,0.8,0.5,1.2h21.7C391.8,668.8,396.3,665.7,400.3,662z"/>
</svg>
