<?xml version="1.0" encoding="utf-8"?>
<!-- Generator: Adobe Illustrator 21.0.0, SVG Export Plug-In . SVG Version: 6.00 Build 0)  -->
<svg version="1.1" id="ae37f038-3a9e-4b82-ad68-fc94ba16af2a"
	 xmlns="http://www.w3.org/2000/svg" xmlns:xlink="http://www.w3.org/1999/xlink" x="0px" y="0px" viewBox="0 0 937 565.3"
	 style="enable-background:new 0 0 937 565.3;" xml:space="preserve">
<style type="text/css">
	.st0{fill:none;}
	.st1{opacity:0.1;fill:#6C63FF;enable-background:new    ;}
	.st2{fill:#3F3D56;}
	.st3{fill:#FFFFFF;}
	.st4{opacity:0.1;enable-background:new    ;}
	.st5{fill:url(#SVGID_1_);}
	.st6{fill:#BE6F72;}
	.st7{fill:#FF6F61;}
	.st8{fill:#7A7993;}
	.st9{opacity:0.1;}
	.st10{fill:url(#SVGID_2_);}
	.st11{fill:url(#SVGID_3_);}
	.st12{opacity:0.1;fill:none;stroke:#000000;stroke-width:2.5314;stroke-miterlimit:10;enable-background:new    ;}
	.st13{fill:url(#SVGID_4_);}
	.st14{fill:#2F2E41;}
	.st15{fill:#FBBEBE;}
	.st16{fill:#E8E8F0;}
	.st17{fill:#F86D70;}
</style>
<pattern  y="565.3" width="36.9" height="49.5" patternUnits="userSpaceOnUse" id="ad310e25-2b04-44c8-bb7b-9823891" viewBox="0 -49.5 36.9 49.5" style="overflow:visible;">
	<g>
		<rect x="0" y="-49.5" class="st0" width="36.9" height="49.5"/>
		<rect x="0" y="-49.5" class="st0" width="36.9" height="49.5"/>
		<rect x="0" y="-49.5" class="st0" width="36.9" height="49.5"/>
		<path d="M4.3-36.3c4.5,0,4.5-7,0-7S-0.2-36.3,4.3-36.3z"/>
		<path d="M4.5-32.3c4.5,0,4.5-7,0-7S0-32.3,4.5-32.3z"/>
		<path d="M4.5-28.5c4.5,0,4.5-7,0-7S0-28.5,4.5-28.5z"/>
		<path d="M3.4-24.8c4.5,0,4.5-7,0-7S-1.1-24.8,3.4-24.8z"/>
		<path d="M1.1-21.2l0.2,0.4c1,1.7,3.1,2.2,4.8,1.3c1.6-1,2.2-3.1,1.3-4.8l-0.2-0.4C6.2-26.4,4-27,2.4-26C0.7-25,0.2-22.9,1.1-21.2z
			"/>
		<path d="M1.5-19.4l0.2,0.6c0.3,0.9,0.8,1.6,1.6,2.1c0.8,0.5,1.8,0.6,2.7,0.3c1.9-0.5,2.9-2.4,2.4-4.3l-0.2-0.6
			c-0.3-0.9-0.8-1.6-1.6-2.1c-0.8-0.5-1.8-0.6-2.7-0.4C2.1-23.2,1-21.2,1.5-19.4z"/>
		<path d="M1.6-15.6v0.4c0,1.9,1.6,3.5,3.5,3.5c1.9,0,3.5-1.6,3.5-3.5v-0.4c0-1.9-1.6-3.5-3.5-3.5C3.2-19.1,1.6-17.5,1.6-15.6z"/>
		<path d="M4.9-7.2c4.5,0,4.5-7,0-7S0.4-7.2,4.9-7.2z"/>
		<path d="M1.8-7.5v0.2c0,1.9,1.6,3.5,3.5,3.5c1.9,0,3.5-1.6,3.5-3.5v-0.2c0-1.9-1.6-3.5-3.5-3.5C3.3-11,1.8-9.4,1.8-7.5z"/>
		<path d="M6-0.2c4.5,0,4.5-7,0-7S1.5-0.2,6-0.2z"/>
		<path d="M10-35.3c4.5,0,4.5-7,0-7S5.5-35.3,10-35.3z"/>
		<path d="M6.6-28.5c4.5,0,4.5-7,0-7S2.1-28.5,6.6-28.5z"/>
		<path d="M8.5-22.5c4.5,0,4.5-7,0-7S4-22.5,8.5-22.5z"/>
		<path d="M8.5-20.2c4.5,0,4.5-7,0-7S4-20.2,8.5-20.2z"/>
		<path d="M14.9-15.7c4.5,0,4.5-7,0-7S10.4-15.7,14.9-15.7z"/>
		<path d="M9.8-11c4.5,0,4.5-7,0-7S5.3-11,9.8-11z"/>
		<path d="M10.6-4.3c4.5,0,4.5-7,0-7S6.1-4.3,10.6-4.3z"/>
		<path d="M10.6,0c4.5,0,4.5-7,0-7S6.1,0,10.6,0z"/>
		<path d="M12.8-31.4c2.6,0,2.6-4,0-4S10.3-31.4,12.8-31.4z"/>
		<path d="M13-29.1c2.6,0,2.6-4,0-4S10.4-29.1,13-29.1z"/>
		<path d="M13.1-28.5v0.2c0,1.1,0.9,2,2,2c1.1,0,2-0.9,2-2v-0.2c0-1.1-0.9-2-2-2C14-30.5,13.1-29.6,13.1-28.5z"/>
		<path d="M15.1-23.6c2.6,0,2.6-4,0-4S12.5-23.6,15.1-23.6z"/>
		<path d="M16.6-38.4c0.6,0,1-0.4,1-1s-0.4-1-1-1s-1,0.4-1,1S16.1-38.4,16.6-38.4z"/>
		<path d="M21.7-32.9c0.6,0,1-0.4,1-1s-0.4-1-1-1s-1,0.4-1,1S21.2-32.9,21.7-32.9z"/>
		<path d="M16.9-40.5v-0.4c0-0.6-0.4-1-1-1s-1,0.4-1,1v0.4c0,0.6,0.4,1,1,1S16.9-40,16.9-40.5z"/>
		<path d="M16.5-44.7v-0.2c0-0.6-0.4-1-1-1s-1,0.4-1,1v0.2c0,0.6,0.4,1,1,1S16.5-44.1,16.5-44.7z"/>
		<path d="M15.5-47.5c0.6,0,1-0.4,1-1s-0.4-1-1-1s-1,0.4-1,1S14.9-47.5,15.5-47.5z"/>
		<path d="M10.6-47.5c0.6,0,1-0.4,1-1s-0.4-1-1-1s-1,0.4-1,1S10-47.5,10.6-47.5z"/>
		<path d="M10.4-44.8c0.6,0,1-0.4,1-1s-0.4-1-1-1s-1,0.4-1,1S9.8-44.8,10.4-44.8z"/>
		<path d="M7.4-43.3c0.6,0,1-0.4,1-1s-0.4-1-1-1s-1,0.4-1,1S6.8-43.3,7.4-43.3z"/>
		<path d="M11.9-42.4h0.4c0.6,0,1-0.4,1-1s-0.4-1-1-1h-0.4c-0.6,0-1,0.4-1,1S11.3-42.4,11.9-42.4z"/>
		<path d="M13.3-38.5l0.6,1.3c0.3,0.5,0.9,0.6,1.4,0.4c0,0,0,0,0,0l0,0c0.5-0.3,0.6-0.9,0.4-1.4c0,0,0,0,0,0l0,0L15-39.5
			c-0.3-0.5-0.9-0.6-1.4-0.4c0,0,0,0,0,0l0,0C13.2-39.6,13-39,13.3-38.5z"/>
		<path d="M18.4-30.1v0.1c0,0.6,0.4,1,1,1s1-0.4,1-1v-0.2c0-0.6-0.4-1-1-1S18.4-30.7,18.4-30.1L18.4-30.1z"/>
		<path d="M20.7-24.5l0.2,0.4c0.6,1.1,2.3,0.1,1.7-1l-0.2-0.4C21.8-26.7,20.1-25.7,20.7-24.5z"/>
		<path d="M22.1-20.1c-0.5,0.5-0.8,1.1-0.8,1.9c0,0.6,0.4,1,1,1s1-0.4,1-1c0-0.2,0.1-0.3,0.3-0.4c0.4-0.4,0.4-1,0-1.4l0,0
			C23.2-20.5,22.5-20.5,22.1-20.1z"/>
		<path d="M20.3-16.1l-0.5,1.7c-0.4,1.2,1.5,1.8,1.9,0.5l0.5-1.7C22.6-16.8,20.7-17.3,20.3-16.1z"/>
		<path d="M19.4-12.5h-0.2c-0.6,0-1,0.4-1,1s0.4,1,1,1h0.2c0.6,0,1-0.4,1-1S20-12.5,19.4-12.5z"/>
		<path d="M17.6-8l-0.2,0.4c-0.6,1.2,1.1,2.2,1.7,1L19.4-7C19.9-8.1,18.2-9.1,17.6-8z"/>
		<path d="M15.8-1.6V-1c0,0.6,0.4,1,1,1c0.6,0,1-0.4,1-1v-0.6c0-0.6-0.4-1-1-1S15.8-2.1,15.8-1.6L15.8-1.6z"/>
		<path d="M14.3,0c0.6,0,1-0.4,1-1s-0.4-1-1-1s-1,0.4-1,1S13.8,0,14.3,0z"/>
		<path d="M14.3-8.2c0.6,0,1-0.4,1-1s-0.4-1-1-1s-1,0.4-1,1S13.8-8.2,14.3-8.2z"/>
		<path d="M17.1-13c0.6-0.3,1-1,1-1.6c0-0.6-0.4-1-1-1s-1,0.4-1,1c0-0.1,0.2-0.2,0-0.1C15-14.1,16-12.4,17.1-13z"/>
		<path d="M17.4-18.2c0.6,0,1-0.4,1-1s-0.4-1-1-1s-1,0.4-1,1S16.8-18.2,17.4-18.2z"/>
		<path d="M18.1-21c0.6,0,1-0.4,1-1s-0.4-1-1-1s-1,0.4-1,1S17.6-21,18.1-21z"/>
		<path d="M19-24.5l0.2-0.4c0.6-1.1-1.1-2.2-1.7-1l-0.2,0.4C16.7-24.4,18.4-23.4,19-24.5z"/>
		<path d="M17.9-33.5c0.6,0,1-0.4,1-1s-0.4-1-1-1s-1,0.4-1,1S17.4-33.5,17.9-33.5z"/>
		<path d="M24.6-33.4l0.6,0.9c0.3,0.4,1,0.5,1.4,0.2c0.4-0.3,0.5-0.8,0.3-1.2l-0.6-1c-0.3-0.5-0.9-0.6-1.4-0.3
			C24.6-34.5,24.4-34,24.6-33.4L24.6-33.4z"/>
		<path d="M34.9-19.8v0.2c0,0.6,0.4,1,1,1s1-0.4,1-1v-0.2c0-0.6-0.4-1-1-1S34.9-20.3,34.9-19.8z"/>
		<path d="M24-10.3c0.6,0,1-0.4,1-1s-0.4-1-1-1s-1,0.4-1,1S23.5-10.3,24-10.3z"/>
		<path d="M22.9-20.5c0.6,0,1-0.4,1-1s-0.4-1-1-1s-1,0.4-1,1S22.3-20.5,22.9-20.5z"/>
		<path d="M18.2-27.6l0.6-0.6c0.9-0.9-0.5-2.3-1.4-1.4L16.8-29C15.9-28.1,17.3-26.7,18.2-27.6z"/>
	</g>
</pattern>
<title>phone</title>
<ellipse class="st1" cx="468.5" cy="461.1" rx="468.5" ry="11.3"/>
<ellipse class="st1" cx="468.5" cy="554" rx="468.5" ry="11.3"/>
<ellipse class="st1" cx="468.5" cy="267.3" rx="468.5" ry="11.3"/>
<ellipse class="st1" cx="468.5" cy="364.2" rx="468.5" ry="11.3"/>
<circle class="st2" cx="765.5" cy="129.4" r="129.4"/>
<path class="st3" d="M821.1,162.8c-4.5-4.5-15.3-11.3-20.7-13.8c-6.2-3-8.5-2.9-12.9,0.3c-3.7,2.6-6,5.1-10.2,4.2
	s-12.5-7.2-20.5-15.2s-14.3-16.3-15.2-20.5s1.6-6.6,4.2-10.2c3.2-4.4,3.3-6.7,0.3-12.9c-2.6-5.4-9.3-16.2-13.9-20.7s-5.5-3.5-8-2.6
	c-2.6,1.1-5,2.4-7.3,3.9c-4.5,3-7,5.5-8.8,9.3s-3.8,10.8,6.5,29.2c7.6,14.1,17.3,26.9,28.6,38.2l0,0c11.3,11.4,24.2,21,38.3,28.7
	c18.4,10.4,25.4,8.3,29.2,6.5s6.3-4.3,9.3-8.8c1.5-2.3,2.8-4.8,3.9-7.3C824.6,168.4,825.6,167.4,821.1,162.8z"/>
<path class="st4" d="M765.5,0C694,0,636,57.9,635.9,129.4S693.9,259,765.4,259c71.5,0,129.5-57.9,129.6-129.4c0,0,0,0,0,0v-0.1
	C894.9,58,836.9,0.1,765.5,0z M765.5,241.7c-62,0-112.2-50.2-112.2-112.2S703.5,17.2,765.5,17.2s112.2,50.2,112.2,112.2v0l0,0
	C877.7,191.4,827.5,241.7,765.5,241.7L765.5,241.7L765.5,241.7z"/>
<circle class="st2" cx="468.1" cy="326" r="129.4"/>
<path class="st3" d="M541.7,287L503,326.4c-0.3,0.3-0.3,0.7,0,1c0,0,0,0,0,0l0,0l27.2,28.9c1.8,1.8,1.8,4.8,0,6.6s-4.8,1.8-6.6,0
	l-27-28.8c-0.3-0.3-0.7-0.3-1,0l-6.6,6.7c-5.5,5.6-12.9,8.7-20.7,8.8c-8,0-15.5-3.3-21.1-9l-6.3-6.5c-0.3-0.3-0.7-0.3-1,0l-27,28.8
	c-1.8,1.8-4.8,1.8-6.6,0c0,0,0,0,0,0l0,0c-1.8-1.8-1.8-4.8,0-6.6l0,0l27.1-28.9c0.2-0.3,0.2-0.7,0-1l-38.8-39.4
	c-0.3-0.3-0.7-0.3-1,0c-0.1,0.1-0.2,0.3-0.2,0.5v78.9c0,6.3,5.2,11.5,11.5,11.5h126.7c6.3,0,11.5-5.2,11.5-11.5v-78.9
	c0-0.4-0.3-0.7-0.7-0.7C542.1,286.7,541.9,286.8,541.7,287L541.7,287z"/>
<path class="st3" d="M468.1,340.1c5.3,0.1,10.4-2.1,14.1-5.8l56.5-57.5c-2-1.7-4.5-2.6-7.1-2.6H404.8c-2.6,0-5.1,0.9-7.1,2.6
	l56.5,57.5C457.8,338,462.9,340.1,468.1,340.1z"/>
<path class="st4" d="M466.5,196.6c-71.5,0-129.5,57.9-129.5,129.4s57.9,129.5,129.4,129.5c71.5,0,129.5-57.9,129.5-129.4v-0.1
	C595.9,254.6,537.9,196.7,466.5,196.6z M466.5,438.3c-62,0-112.2-50.2-112.2-112.2c0-62,50.2-112.2,112.2-112.2
	c62,0,112.2,50.2,112.2,112.2l0,0C578.7,388,528.5,438.3,466.5,438.3C466.5,438.3,466.5,438.3,466.5,438.3z"/>
<circle class="st2" cx="160.9" cy="229.4" r="129.4"/>
<path class="st3" d="M160.9,167.4l-51.6,119.1l4.8,4.8l46.8-20.6l46.8,20.6l4.8-4.8L160.9,167.4z"/>
<path class="st4" d="M160.9,99.9c-71.5,0-129.5,57.9-129.5,129.4s57.9,129.5,129.4,129.5c71.5,0,129.5-57.9,129.5-129.4v-0.1
	C290.3,157.9,232.4,99.9,160.9,99.9z M160.9,341.6c-62,0-112.2-50.2-112.2-112.2s50.2-112.2,112.2-112.2
	c62,0,112.2,50.2,112.3,112.2c0,0,0,0,0,0v0.1C273.1,291.4,222.9,341.6,160.9,341.6L160.9,341.6z"/>
<linearGradient id="SVGID_1_" gradientUnits="userSpaceOnUse" x1="730.6594" y1="1491.6844" x2="730.6594" y2="1056.1" gradientTransform="matrix(1 0 0 1 -61.88 -930.1)">
	<stop  offset="0" style="stop-color:#808080;stop-opacity:0.25"/>
	<stop  offset="0.54" style="stop-color:#808080;stop-opacity:0.12"/>
	<stop  offset="1" style="stop-color:#808080;stop-opacity:0.1"/>
</linearGradient>
<path class="st5" d="M724,236c-2.3-5.6-4.6-11.2-7.1-16.8c-2-5.4-4.9-10.5-8.6-14.9c-1.4-1.6-3.1-2.9-5.1-3.8
	c-2.1-0.8-4.3-1.2-6.6-1.3c-3.5-0.4-7-0.5-10.4-0.3c-1.3-0.4-2.9-0.9-4.4-1.5c15.4-4,26.3-17.7,26.9-33.5v-1.6
	c0.1-19.9-16-36.1-35.9-36.2c0,0,0,0,0,0l0,0c-6.7,0-13.2,1.9-18.9,5.4c-15.4-3.5-31.1,4.1-38,18.3c-8.5,8.1-13.2,19.4-12.9,31.1
	v1.6c0.7,19.7,13.4,35.4,29.4,37c-1.7,0.8-3.3,1.8-4.7,3.1c-4.9,4.7-5.7,12.3-6.3,19.1l-0.4,5.1l-8.5,3c-0.8,0.3-1.2,1.2-0.9,2
	c0.1,0.3,0.3,0.6,0.6,0.8l8.1,5.8v1.4c0,0.6,0,1.1,0.2,1.6c-1.4,1.2-2.5,2.8-3.1,4.5c-0.8,2.7-1,5.4-0.7,8.2l0.3,7.1
	c0,5.3,0.7,10.6,2.2,15.7c1.1,3.1,5.7,10.7,9,10.8c-3.1,13.9-3.9,43.3-3.9,43.3c-0.4,0.4,0.7,0.7,2.5,1c1.8,14,7.8,53.2,18.3,70.4
	c1.6,5.6,2.9,11.3,3.9,17.1c0,0,3,37.2,7,48.3c3.4,9.4,6.1,32.6,6.8,39.4c-1.4,0.4-2.5,1.5-2.8,2.9c-2,6-15,15.2-15,15.2
	c-3.9,2-7.6,4.5-11,7.3c-4.1,3.7-3.9,7,14.2,4.9c34.9-4,40.9-15.2,40.9-15.2s-0.6-1.9-1.4-4.3c-1.1-3.8-2.6-7.4-4.6-10.8
	c-0.5-0.5-1,0.3-1.6,1.6c-2.6-16.1-3.4-32.5-2.3-48.8c0,0,1-17.1-4-29.2c-1.1-6.3-1.1-12.8,0-19.1c2-8.1-8-47.3-8-47.3l-5.7-28.9
	c0.8,1,1.3,2.1,1.6,3.4l0.2,0.6l0.2,0.8c0.1,0.3,0.2,0.6,0.4,0.8c3.9,16.2,14.6,61.1,14.6,67.7c0,8.1,10,28.2,10,28.2
	s3.9,33.2,11,46.3c5.3,9.9,5.4,24.5,5.2,31l0,0c0,0-1.2,8.3-3.2,10.3c-1.6,2-2.9,4.2-3.8,6.5l-0.2,0.5c0,0-3,6.1-1,7.1
	c7.6,3,15.8,4,23.9,3c0,0,4-5.1,4-7c-0.1-1.2-0.2-2.4-0.5-3.6c-0.7-4.8-2.1-12.3-2.1-12.3c0.8-3.2-2.5-12.3-2.5-12.3l-1-28.2
	c1.9-19.1-0.5-38.3-7-56.4c0,0-5.1-18.1-3.9-23.1c1.1-5-2-58.4-2-58.4l-0.3-0.8c-0.3-3.8-0.2-7.6,0.3-11.3c1-12.1-3-37.2-4-38.2
	c-0.8-2.7-1.3-5.5-1.4-8.3c0.2-2.1,0.9-8.2,1.9-15.9c9.8-0.3,19.7-1.2,29.4-2.5c0.9,0,1.8-0.4,2.5-1c0.4-0.6,0.6-1.3,0.6-2
	C735.3,264.7,729.7,250,724,236z M703.9,267.9c1-7.2,2.2-14.2,3.3-19.4l0.2,0.5c1.9,5.2,3.5,10.5,4.8,15.9
	C709.5,266.1,706.8,267.1,703.9,267.9z"/>
<path class="st6" d="M626.4,349.4c0,0,6,53.7,18.9,74.6c1.6,5.6,3,11.2,3.9,17c0,0,3,36.8,7,47.7c4,10.9,7,40.8,7,40.8
	s13.9,15.9,18.9,3c-3.1-17.1-4.1-34.5-2.9-51.8c0,0,1-17-3.9-28.9c-1.1-6.2-1.1-12.6,0-18.9c2-8-8-46.8-8-46.8l-7.9-38.8
	L626.4,349.4z"/>
<path class="st7" d="M689.1,542.4c0,0-5.9,10.9-40.8,14.9c-18.1,2-18.2-1.2-14.1-4.9c3.5-2.7,7.2-5.1,11.1-7.1
	c0,0,12.9-8.9,14.9-14.9c2-6,9-1,9-1c9.9,14.9,12-4,13.9-2c2,3.3,3.5,6.9,4.6,10.7C688.5,540.5,689.1,542.4,689.1,542.4z"/>
<path class="st4" d="M689.1,542.4c0,0-5.9,10.9-40.8,14.9c-18.1,2-18.2-1.2-14.1-4.9c2.8,1.8,8.6,2.5,20.1-2.1
	c16.6-6.8,28.6-10.7,33.4-12.2C688.5,540.5,689.1,542.4,689.1,542.4z"/>
<path class="st4" d="M679.1,480.6c0,0,1-17-3.9-28.9c-1.1-6.2-1.1-12.6,0-18.9c2-8-8-46.8-8-46.8l-7.9-38.8l-6.9,0.4l7.8,38.4
	c0,0,9.9,38.8,8,46.8c-1.1,6.2-1.1,12.6,0,18.9c5.1,12,3.9,28.9,3.9,28.9c-1.1,17.3-0.1,34.7,3,51.7c-0.5,1.6-1.5,3-2.9,4.1
	c3.7,1.7,7.6,1.6,9.9-4.1C679,515.3,678,497.9,679.1,480.6z"/>
<path class="st8" d="M672.7,131c-6.6,0-13.1,1.8-18.8,5.3c-15.3-3.6-31.1,3.9-38,18c-8.4,8-13.1,19.2-12.9,30.8
	c0,21.2,14.2,38.4,31.8,38.4c12.7,0,23.7-9,28.8-22.1c2.9,0.8,5.9,1.2,9,1.2c19.8,0,35.8-16.1,35.8-35.8
	C708.4,147.1,692.4,131,672.7,131L672.7,131z"/>
<path class="st6" d="M702,354.3l3,7.9c0,0,3,52.7,2,57.7s4,22.8,4,22.8c6.4,17.8,8.8,36.8,7,55.7l1,27.8c0,0,3.9,10.9,2,12.9
	c-1.9,2-17-1.8-17-1.8s2-20.9-5.1-33.8c-7.1-12.9-10.9-45.8-10.9-45.8S678,438,678,430s-15.9-72.6-15.9-72.6L702,354.3z"/>
<path class="st2" d="M624.4,353.4c0,0,1-35.8,5.1-46.8c2.1-5.1,3.5-10.4,4.4-15.9c0,0,60.2,10.9,65.2,6.9c0,0,1,13.9,2,14.9
	s5.1,25.9,3.9,37.8c-1.1,12,0,11.9,0,11.9s-40.8,6-41.8,0s-3.9-6-3.9-6S622.4,355.2,624.4,353.4z"/>
<g class="st9">
	<path d="M657.2,353.4c0,0-25.2-0.6-32.8-2.1v2c-2,2,34.8,3,34.8,3c0.5,0.1,0.9,0.3,1.3,0.6C659.3,353.4,657.2,353.4,657.2,353.4z"
		/>
	<path d="M701,312.6c-1-1-2-14.9-2-14.9c-0.5,0.3-1.1,0.5-1.7,0.6c0.4,4.2,1,10.7,1.7,11.3c0.7,0.7,5.1,25.9,3.9,37.8
		c-1.1,12,0,11.9,0,11.9s-32.3,4.7-40.1,1.6c0.1,0.5,0.2,1,0.3,1.4c1,6,41.8,0,41.8,0s-1,0,0-11.9S702,313.6,701,312.6z"/>
	
		<pattern  id="SVGID_2_" xlink:href="#ad310e25-2b04-44c8-bb7b-9823891" patternTransform="matrix(1 0 0 1 -107.6 -149.16)"  class="st9">
	</pattern>
	<path class="st10" d="M657.2,353.4c0,0-25.2-0.6-32.8-2.1v2c-2,2,34.8,3,34.8,3c0.5,0.1,0.9,0.3,1.3,0.6
		C659.3,353.4,657.2,353.4,657.2,353.4z"/>
	
		<pattern  id="SVGID_3_" xlink:href="#ad310e25-2b04-44c8-bb7b-9823891" patternTransform="matrix(1 0 0 1 -107.6 -149.16)"  class="st9">
	</pattern>
	<path class="st11" d="M701,312.6c-1-1-2-14.9-2-14.9c-0.5,0.3-1.1,0.5-1.7,0.6c0.4,4.2,1,10.7,1.7,11.3c0.7,0.7,5.1,25.9,3.9,37.8
		c-1.1,12,0,11.9,0,11.9s-32.3,4.7-40.1,1.6c0.1,0.5,0.2,1,0.3,1.4c1,6,41.8,0,41.8,0s-1,0,0-11.9S702,313.6,701,312.6z"/>
</g>
<path class="st6" d="M668.3,193.7c0.9,1.9,2.2,3.6,3.8,4.9c1.1,0.8,2.3,1.3,3.6,1.5c-2.2,1.3-4.7,2.3-6.9,3.5
	c-3.5,2.4-6.9,4.9-10.1,7.6c-3.3,2.7-7.4,4.2-11.6,4.5c3-4.1,3.6-9.5,1.6-14.1c-0.9-1.5-1.5-3.2-1.8-4.9c0-2.9,2.5-5.1,4.9-6.5
	c1.9-1.3,3.8-2.5,5.8-3.8c1.5-1,3.9-3,5.8-2.9c1.9,0.1,2.2,1.8,2.5,3.6C666.4,189.4,667.2,191.6,668.3,193.7z"/>
<path class="st4" d="M668.3,193.7c0.9,1.9,2.2,3.6,3.8,4.9c1.1,0.8,2.3,1.3,3.6,1.5c-2.2,1.3-4.7,2.3-6.9,3.5
	c-3.5,2.4-6.9,4.9-10.1,7.6c-3.3,2.7-7.4,4.2-11.6,4.5c3-4.1,3.6-9.5,1.6-14.1c-0.9-1.5-1.5-3.2-1.8-4.9c0-2.9,2.5-5.1,4.9-6.5
	c1.9-1.3,3.8-2.5,5.8-3.8c1.5-1,3.9-3,5.8-2.9c1.9,0.1,2.2,1.8,2.5,3.6C666.4,189.4,667.2,191.6,668.3,193.7z"/>
<circle class="st6" cx="691.6" cy="229.5" r="22.9"/>
<path class="st7" d="M723.9,554.3c0,2-3.9,7-3.9,7c-8.1,1-16.3,0-23.9-3c-2-1,1-7,1-7l0.2-0.5c0.9-2.4,2.2-4.6,3.8-6.5
	c2-2,3.2-10.1,3.2-10.1c6.2-10.1,17.1,4.4,17.1,4.4s1.4,7.6,2.1,12.2C723.7,551.9,723.8,553.1,723.9,554.3z"/>
<path class="st4" d="M723.9,554.3c0,2-3.9,7-3.9,7c-8.1,1-16.3,0-23.9-3c-2-1,1-7,1-7l0.2-0.5c6.8,3.1,14.2,4.7,21.7,4.4l4.5-4.5
	C723.7,552.4,723.9,553.8,723.9,554.3z"/>
<circle class="st6" cx="645.8" cy="181.7" r="22.4"/>
<path class="st6" d="M627.7,226.5c-4.9,4.7-5.7,12.1-6.2,18.9l-0.8,9.9c-0.3,2.7-0.3,5.3-0.2,8c0,1.6,0.4,3.3,0.6,5.1
	c0.2,1.7,0.2,3.9,0.2,6v14.6c-0.2,3,0.3,6,1.6,8.8c1.4,2.7,4.7,3.9,7.6,2.7c1.6-1.2,2.7-2.9,3.1-4.9c2.5-5.9,4.2-12.1,5-18.5
	c0.2-2.2,0.2-4.4,0.4-6.6c0.2-2.2,0.6-4.5,0.9-6.7c1.4-9.3,2-18.7,2.7-28.1c0.2-2.8,2.7-13.7-1-15c-1.8-0.6-5.4,1.3-7.1,1.9
	C632.1,223.3,629.8,224.7,627.7,226.5z"/>
<path class="st4" d="M627.7,226.5c-4.9,4.7-5.7,12.1-6.2,18.9l-0.8,9.9c-0.3,2.7-0.3,5.3-0.2,8c0,1.6,0.4,3.3,0.6,5.1
	c0.2,1.7,0.2,3.9,0.2,6v14.6c-0.2,3,0.3,6,1.6,8.8c1.4,2.7,4.7,3.9,7.6,2.7c1.6-1.2,2.7-2.9,3.1-4.9c2.5-5.9,4.2-12.1,5-18.5
	c0.2-2.2,0.2-4.4,0.4-6.6c0.2-2.2,0.6-4.5,0.9-6.7c1.4-9.3,2-18.7,2.7-28.1c0.2-2.8,2.7-13.7-1-15c-1.8-0.6-5.4,1.3-7.1,1.9
	C632.1,223.3,629.8,224.7,627.7,226.5z"/>
<path class="st7" d="M674.1,196.1c0,0-17,12.9-26.9,15.9c0,0-5.9,6.7-6.9,8.4c-1,1.6-3,19.5-5.1,23.5s-7,12.9,0,21.9c0,0,2,9,1,12
	c-1,3-4.6,13.9-1.3,14.4c3.3,0.5,13.3,7.4,22.2,5.5c8.9-2,42.3,7.6,42.3,7.6s5.5-51.3,9.5-60.3l-8.9-3c0,0-24.8-14.9-9.9-37.8
	C690.1,204.1,676.1,201.2,674.1,196.1z"/>
<path class="st2" d="M612.4,256.1l20.6,14.5c0.5,0.4,1.3,0.4,1.8,0l5.6-4.2c0.7-0.6,0.7-1.5,0.2-2.2c0,0,0,0,0,0l-0.2-0.2L624.5,250
	c-0.4-0.4-1-0.5-1.5-0.3l-10.2,3.6c-0.8,0.3-1.2,1.1-1,1.9C612,255.6,612.2,255.9,612.4,256.1L612.4,256.1z"/>
<path class="st6" d="M619.3,299.9c-1.5-5-2.2-10.3-2.2-15.5l-0.3-7c-0.3-2.7-0.1-5.5,0.7-8.1c1.6-3.6,4.7-6.4,8.5-7.5
	c3.8-1,7.7-1.3,11.6-0.8c0.5,0,1,0.1,1.5,0.4c0.4,0.4,0.7,0.8,0.8,1.3c1.2,2.3,1.3,4.9,0.5,7.3c-0.6,1-1.4,1.8-2.3,2.4
	c-2.8,2-5.9,3.3-8.5,5.5c-0.5,0.4-0.9,0.9-1.2,1.5c-0.1,0.5-0.1,1.1,0,1.6c0.3,1.4,0.8,2.8,1.3,4.1c0.2,0.7,0.6,1.3,1.1,1.7
	c0.5,0.4,1.1,0.6,1.6,0.9c1.1,0.9,3.4,2,3.2,3.4c-0.4,5.1-3.4,10.7-4.6,15.7C628.9,316.7,620.8,304.2,619.3,299.9z"/>
<g class="st9">
	<path d="M651.3,297.6h-0.6c2.2,0.4,4.4,0.4,6.5,0h0.6C655.7,297.3,653.5,297.3,651.3,297.6z"/>
	<path d="M703.5,243.4c-3.6,8-8.8,51.5-9.8,60.1c3.5,0.9,5.8,1.6,5.8,1.6s5.5-51.1,9.5-60.2L703.5,243.4z"/>
</g>
<path class="st6" d="M692.3,230.2c0.4,2,1.6,3.8,3.3,4.9c2.1,1.8,4.1,3.7,5.8,5.9c2.5,3.5,4.4,7.4,5.7,11.5
	c1.9,5.2,3.5,10.4,4.8,15.7c-12.7,5.9-27,5.6-40.5,9.5c-5.8,1.5-11.1,4.6-15.2,9c-4.2,4.4-6.2,10.4-5.6,16.4c0,0.4,0.1,0.7,0.3,1
	c0.4,0.5,1.1,0.8,1.8,0.7c3.4,0,6.6-1.1,9.3-3.2c2.6-2.1,5-4.4,7.1-7c1.3-1.7,3.1-3,5.1-3.7c7.3-2.2,15.2-2.1,22.8-2.2
	c11.4-0.2,22.7-1.1,33.9-2.7c1.5,0.2,2.9-0.9,3-2.4c0-0.2,0-0.4,0-0.7c1.1-14.9-4.4-29.5-10.1-43.4c-2.3-5.6-4.6-11.1-7-16.6
	c-2-5.4-4.9-10.4-8.6-14.7c-1.4-1.6-3.1-2.9-5.1-3.7c-2.2-0.8-4.5-1.2-6.8-1.3c-3.7-0.5-7.4-0.6-11.1-0.2c-0.6,1.9-0.9,3.8-1.1,5.7
	c0.2,6.8,3.2,13.2,6.1,19.4C690.7,229.3,691.8,229.3,692.3,230.2z"/>
<path class="st12" d="M651.8,243c-1.7,2.9-2.6,6.3-2.5,9.7c0,1.3,0.2,2.6,0.6,3.9c1.4,3.6,4.4,6.4,8.1,7.6"/>
<path class="st8" d="M664.7,159.9c-1.2,0-2.5,0.2-3.7,0.6c-3.3-5.1-11.1-8.6-20.3-8.6c-12.1,0-21.9,6.3-21.9,13.9
	c0,7.7,9.8,13.9,21.9,13.9c4.5,0.1,9-0.9,13.1-2.8c2.9,5.9,10,8.4,15.9,5.6c5.9-2.9,8.4-10,5.6-15.9
	C673.4,162.5,669.2,159.9,664.7,159.9L664.7,159.9z"/>
<path class="st4" d="M665.7,180.8c-4.6,0-8.8-2.6-10.7-6.8c-4.1,1.9-8.6,2.8-13.1,2.8c-12.1,0-21.9-6.2-21.9-13.9c0-0.5,0-0.9,0-1.4
	c-0.7,1.4-1.1,2.9-1.1,4.4c0,7.6,9.8,13.9,21.9,13.9c4.5,0.1,9-0.9,13.1-2.8c2.9,5.9,10,8.4,15.9,5.5c3.4-1.6,5.8-4.8,6.5-8.5
	C674.4,178.1,670.2,180.7,665.7,180.8z"/>
<path class="st4" d="M615.9,160.3c6.9-14.1,22.6-21.6,38-18.1c16.8-10.4,38.9-5.2,49.3,11.7c3,4.8,4.7,10.2,5.2,15.8v-3
	c0-19.8-16.1-35.8-35.9-35.7c-6.6,0-13.1,1.9-18.7,5.3c-15.3-3.5-31,3.9-38,18c-8.4,8-13.1,19.2-12.9,30.8v3
	C603.4,177.5,608.1,167.5,615.9,160.3z"/>
<linearGradient id="SVGID_4_" gradientUnits="userSpaceOnUse" x1="307.3751" y1="1459.0554" x2="307.3751" y2="1265.2455" gradientTransform="matrix(1 0 0 1 -61.88 -930.1)">
	<stop  offset="0" style="stop-color:#808080;stop-opacity:0.25"/>
	<stop  offset="0.54" style="stop-color:#808080;stop-opacity:0.12"/>
	<stop  offset="1" style="stop-color:#808080;stop-opacity:0.1"/>
</linearGradient>
<path class="st13" d="M374.1,389.3c0.1-6-2.7-11.6-7.5-15.2c-0.1-10.8-7.9-19.9-18.5-21.6c-1.6-7.7-7.2-14-14.7-16.4l0,0
	c-0.9-0.3-1.8-0.5-2.7-0.6h-3.2c-10.5,0.2-19.3,8-20.9,18.5c-6.7-1.5-12.9,0.5-14,4.7c-0.3,1.1-0.2,2.3,0.2,3.4
	c1.1,3.3,4.9,6.5,9.9,8l0.6,0.2l1,0.3h0.2c-1.1,2.3-1.6,4.8-1.6,7.3c-0.1,6.3,3.4,12.1,9,15l-0.4,0.3c-0.6,0.6-1.1,1.2-1.5,2
	c-1.2,2.1-2.2,4.4-2.8,6.8c-0.5,2-0.6,4.1-1.1,6.2c-1.1,3.7-4,6.8-4.3,10.7c-0.1,1.7,0.1,3.8-1.1,5c-0.3,0.3-0.6,0.5-1,0.7
	c-0.8,0.6-1.6,1.4-2.1,2.3c-0.4,0.8-0.9,1.5-1.5,2.1c-1.1,0.8-2.9,0.8-3.5,2s0.9,2.8,0.5,4.2s-1.5,1.7-2.4,2.5c-1,1.1-1.7,2.4-2,3.8
	c-3.7,0.7-7.5-0.3-10.4-2.6c0.5,1.2,0.8,2.5,1.1,3.8c-1.7-1.3-3.6-2.2-5.6-2.8c-2.3-1-4.3-2.5-6-4.4l3.2-0.4L257,413.3l-4.2-0.9
	l3.7,7.2c-0.6,0.3-1.1,0.8-1.3,1.5c-0.2,0.8-0.2,1.6-0.1,2.4c0.2,1.9,0.5,3.9,1,5.8l1.1,5c0.1,0.5,0.2,0.9,0.4,1.4
	c-1.4-0.1-2.8,0.1-4.2,0.5c-2.8-1-5.7-1.7-8.6-2c-0.6-0.1-1.3-0.1-1.9,0c-0.7,0.3-1.3,0.8-1.8,1.5c-2.4,2.8-4.6,5.8-6.4,9.1
	c-7.7,13.2-17.7,24.7-27.1,36.6c-6.5,2.6-13.1,5.2-19.7,7.7l-14.2,5.4c-2.8,1.3-5.8,1.9-8.8,1.9c-1.3,0-3-0.3-3.8,0.9
	c-0.4,0.6-0.7,1.2-0.9,1.9l-1.5,0.1l0,0c-0.7-2.3-1.8-4.4-3.4-6.3c-0.7,0.1-1.3,0.6-1.6,1.2c-0.4,0.6-0.6,1.3-1,1.9
	c-0.8,1.1-2.1,1.6-3,2.6s-1.5,2.4-2.6,3.4c-1.4,1-3.1,1.7-4.8,1.9c-2.6,0.6-5.2,1.6-7.5,2.9c-0.9,0.5-1.8,1-2.8,1.3
	c-1.1,0.2-2.2,0.3-3.3,0.1l-7.5-0.6c-0.7-0.1-1.3,0-2,0.1c-1.5,0.6-2.5,2.2-2.4,3.8c0.2,1.6,1.1,3.1,2.4,4.1c1.3,1,2.7,1.7,4.3,2.2
	c6.5,2.5,13.2,4.5,20,5.9v1.5c4.8,2.4,10,3.7,15.4,3.7c0.4,0,0.8,0,1.1-0.2c0.5-0.4,0.9-0.9,1-1.5c1.6-4.8,2.6-9.7,3-14.7l0,0
	c0.9-0.1,1.9-0.3,2.7-0.7c2.6-0.7,5.1,1.1,7.8,1.3c3.3,0.4,6.3-1.6,9.4-2.7l1.3-0.4c-0.9,1.1-1.9,2.2-3.1,3c-1.3,0.9-2.7,1.6-4,2.6
	c-1.1,1-2.2,1.8-3.4,2.6c-0.8,0.4-1.7,0.7-2.6,1c-1.3,0.5-2.5,1.1-3.7,1.9c-1,0.6-1.9,1.5-2.5,2.5c-0.6,1-0.7,2.3-0.2,3.5
	c0.5,0.9,1.4,1.5,2.5,1.7c1,0.2,2,0.2,3.1,0c4.1-0.3,8.1-0.7,12.2-1c1.7-0.1,3.4-0.4,5.1-0.7c0.9-0.2,1.8-0.5,2.6-0.8
	c1.5-0.4,3.1-0.6,4.6-0.7c0.5,0,0.9,0,1.3,0.1c0.9,0.3,1.6,1.3,2.6,1.5c0.7,0.1,1.3,0,1.9-0.3c3-0.7,6-1,9-1c1.3,0,2.9-0.3,3.5-1.5
	s-0.5-3.2-1-4.8c-0.3-1-0.4-2.1-0.4-3.2c-0.2-2.6-1-5.2-2.2-7.6c-0.7-1.1-1.2-2.2-1.7-3.5c5.8-2.2,11.4-5,16.6-8.4
	c2.9-2.1,6-3.6,9.4-4.5c4-0.5,8.1,0,11.9,1.4c9.2,2.7,18.3,5.8,27.2,9.5c4.2,1.8,8.5,3.6,12.8,4.9c1.3,1.7,2.8,3.2,4.6,4.4
	c3,1.7,6.4,2.6,9.9,2.7c4.6,0.4,9.3,0.6,13.9,0.5c3.6,0.2,7.1-0.5,10.4-1.9c0.8-0.4,1.5-0.9,2.2-1.4c2.5,0.2,5-0.7,6.8-2.5
	c2.5-2.2,4.3-5,5.2-8.2c1.1-4.4,0.3-9.6,3-13.1c0.7-1,1.6-1.7,2.4-2.7c0.8-1.3,1.2-2.9,1.1-4.4c0-0.1,0.1-0.1,0.1-0.2
	c0.6-1.4,1-2.9,1.1-4.4c0.3-1.2,0.7-2.4,1.3-3.5c1.4-3.4,2.6-6.8,3.6-10.3c0.7-2.3,1.2-4.7,1.6-7.1c0.3-1.9,0.5-3.8,0.6-5.8
	c0.2-3,0.8-6,1.8-8.9c2.4-6.8,3.7-14,4-21.3v-0.4c7.3-0.8,12.8-7.1,12.6-14.5c0-2.1-0.4-4.2-1.3-6.2
	C373.2,396,374.1,392.7,374.1,389.3z M305.5,472.7c0.2,0.8,0.5,1.5,0.7,2.2c-1.1-1.1-2.2-2.2-3.4-3.3c0.4,0.1,0.9,0.3,1.3,0.5
	C304.6,472.2,305,472.4,305.5,472.7L305.5,472.7z M300,469c-6.6-5.8-14.3-10.2-21.1-15.8c3.7,1.8,7.3,4,10.9,6
	c4.2,2.4,8.5,4.8,12.9,7C302,467.3,301,468.3,300,469L300,469z M302.8,454.5l0.3-0.3v2.3l-1.8-0.6
	C301.9,455.5,302.4,455,302.8,454.5L302.8,454.5z M244.4,470.1c2.7-3.1,5.1-6.5,7.1-10.1c2.6,4.6,6.9,7.9,10.5,11.8
	C256.2,471,250.3,470.3,244.4,470.1L244.4,470.1z"/>
<polygon class="st14" points="253.9,414.1 258.1,415 272.3,436.1 266.1,436.9 "/>
<path class="st15" d="M152.4,499.7c1.1,3.7,2.5,7.3,4.2,10.8c4.7-1,9.4-2.3,13.9-4c-0.9-1.3-1.9-2.6-2.9-3.8c-1.1-1.2-2.5-2.2-3.9-3
	c-1.6-0.4-3.2-0.4-4.8,0C156.8,499.7,154.6,499.7,152.4,499.7z"/>
<path class="st14" d="M163.7,505.3c-2.3-1-4-3-4.8-5.4c-0.7-2.4-2-4.6-3.6-6.5c-0.7,0.1-1.3,0.6-1.6,1.2c-0.4,0.6-0.6,1.3-0.9,1.9
	c-0.8,1.1-2.1,1.6-3.1,2.5s-1.5,2.4-2.6,3.3c-1.4,1.1-3.1,1.7-4.9,1.9c-2.7,0.6-5.3,1.6-7.7,2.8c-0.9,0.5-1.8,1-2.8,1.3
	c-1.1,0.2-2.2,0.2-3.3,0l-7.6-0.5c-0.6-0.1-1.3-0.1-1.9,0c-1.6,0.6-2.6,2.2-2.4,3.8c0.2,1.6,1.1,3.1,2.4,4.1
	c1.3,0.9,2.8,1.7,4.3,2.2c6.6,2.5,13.4,4.4,20.3,5.8v1.5c4.8,2.4,10.1,3.6,15.4,3.6c0.4,0,0.8,0,1.1-0.2c0.5-0.4,0.9-0.9,1-1.5
	c1.8-5.3,2.9-10.8,3.2-16.4c0.1-1.4,0-2.9-0.3-4.2c-0.4-1.4,1-0.8-0.3-1.3"/>
<path class="st14" d="M308.7,476.8c-22.4,1.3-44.6-5.2-67-5.9c-2.8-0.2-5.6,0-8.3,0.5c-2.9,0.8-5.6,1.8-8.3,3.2
	c-12,5.6-24.5,10.3-36.9,14.9l-14.3,5.3c-2.8,1.3-5.8,1.9-8.9,1.9c-1.4,0-3-0.3-3.8,0.8c-2.3,3.5-1.2,8.5,0.3,12.4
	c0.5,1.3,1.3,2.6,2.7,2.7c0.9-0.1,1.9-0.3,2.7-0.7c2.6-0.7,5.2,1.1,7.9,1.3c3.3,0.3,6.4-1.5,9.5-2.7c5.2-1.9,10.8-1.9,16.3-2.8
	c9.1-1.5,17.6-5.8,25.5-10.6c2.9-2,6.1-3.6,9.5-4.5c4.1-0.5,8.2,0,12,1.4c9.3,2.6,18.4,5.7,27.4,9.3c4.7,2,9.4,3.8,14.3,5.2
	c10.6,2.8,21.9,2.1,32.1-1.9c3.6-1.4,7.5-3.8,7.7-7.8c0.1-2.2-1.6-4.1-2.7-6c-0.7-1.2-1.5-2.4-2.3-3.6
	C320.2,483.9,315.5,476.4,308.7,476.8z"/>
<path class="st4" d="M308.7,476.8c-22.4,1.3-44.6-5.2-67-5.9c-2.8-0.2-5.6,0-8.3,0.5c-2.9,0.8-5.6,1.8-8.3,3.2
	c-12,5.6-24.5,10.3-36.9,14.9l-14.3,5.3c-2.8,1.3-5.8,1.9-8.9,1.9c-1.4,0-3-0.3-3.8,0.8c-2.3,3.5-1.2,8.5,0.3,12.4
	c0.5,1.3,1.3,2.6,2.7,2.7c0.9-0.1,1.9-0.3,2.7-0.7c2.6-0.7,5.2,1.1,7.9,1.3c3.3,0.3,6.4-1.5,9.5-2.7c5.2-1.9,10.8-1.9,16.3-2.8
	c9.1-1.5,17.6-5.8,25.5-10.6c2.9-2,6.1-3.6,9.5-4.5c4.1-0.5,8.2,0,12,1.4c9.3,2.6,18.4,5.7,27.4,9.3c4.7,2,9.4,3.8,14.3,5.2
	c10.6,2.8,21.9,2.1,32.1-1.9c3.6-1.4,7.5-3.8,7.7-7.8c0.1-2.2-1.6-4.1-2.7-6c-0.7-1.2-1.5-2.4-2.3-3.6
	C320.2,483.9,315.5,476.4,308.7,476.8z"/>
<path class="st15" d="M195.5,500.7c3.5,1.2,7,2.3,10.6,3.3c1.9-3.3,5.8-5.6,6.6-9.3c0-0.2,0-0.3,0-0.5c-0.1-0.2-0.2-0.3-0.4-0.4
	c-2.6-1.4-5.4-2.2-8.3-2.4c-2.3-0.1-3.4,2.3-4.4,4C199.1,496.1,196.4,501.1,195.5,500.7z"/>
<path class="st14" d="M200.4,498.4c-2.1-0.4-4-1.6-5.2-3.4c-0.5-0.9-1-2-2-1.9s-1.3,1.1-1.5,2c-0.7,3.4-1.6,6.8-2.9,10
	c-1.3,3.2-3.4,6.1-6.2,8.2c-1.3,0.9-2.7,1.6-4,2.5c-1.1,0.9-2.2,1.8-3.4,2.6c-0.8,0.4-1.7,0.7-2.6,1c-1.3,0.5-2.6,1.1-3.7,1.9
	c-1,0.6-1.9,1.4-2.6,2.4c-0.6,1-0.7,2.3-0.2,3.4c0.5,0.9,1.4,1.5,2.5,1.7c1,0.2,2.1,0.2,3.1,0c4.1-0.3,8.2-0.7,12.3-1
	c1.7-0.1,3.4-0.3,5.1-0.7l2.7-0.7c1.5-0.4,3.1-0.6,4.7-0.7c0.5,0,0.9,0,1.4,0.1c0.9,0.3,1.6,1.3,2.6,1.4c0.7,0.1,1.3,0,1.9-0.3
	c3-0.6,6-1,9.1-0.9c1.3,0,2.9-0.3,3.5-1.5c0.8-1.5-0.5-3.2-1-4.8c-0.2-1-0.4-2.1-0.4-3.1c-0.2-2.6-1-5.1-2.3-7.5
	c-1-1.9-2.5-4-1.7-6.1c0.4-0.6,0.6-1.4,0.7-2.1C209.8,497.6,202.3,498.8,200.4,498.4z"/>
<path class="st15" d="M275.1,440.9c-4-1.7-7.2-4.9-8.9-8.9c-0.4-0.8-0.7-1.8-1-2.6c-1.2-2.9-3-5.4-5.3-7.4c-0.5-0.5-1.2-0.8-1.9-0.8
	c-0.7,0.2-1.3,0.8-1.4,1.5c-0.2,0.8-0.3,1.6-0.1,2.4c0.2,1.9,0.5,3.8,1,5.6l1.1,5c0.1,0.8,0.4,1.5,0.7,2.2c0.5,0.8,1.1,1.6,1.8,2.2
	c1,0.9,2,1.8,3,2.7c0.6,0.5,1.2,1,1.9,1.3c1.1,0.5,2.2,0.9,3.4,1c4.6,0.6,8.9,2.3,12.7,4.9v-3.7c-0.1-1-0.4-1.9-1-2.7
	C279.2,442.3,277.2,441.4,275.1,440.9z"/>
<path class="st4" d="M275.1,440.9c-4-1.7-7.2-4.9-8.9-8.9c-0.4-0.8-0.7-1.8-1-2.6c-1.2-2.9-3-5.4-5.3-7.4c-0.5-0.5-1.2-0.8-1.9-0.8
	c-0.7,0.2-1.3,0.8-1.4,1.5c-0.2,0.8-0.3,1.6-0.1,2.4c0.2,1.9,0.5,3.8,1,5.6l1.1,5c0.1,0.8,0.4,1.5,0.7,2.2c0.5,0.8,1.1,1.6,1.8,2.2
	c1,0.9,2,1.8,3,2.7c0.6,0.5,1.2,1,1.9,1.3c1.1,0.5,2.2,0.9,3.4,1c4.6,0.6,8.9,2.3,12.7,4.9v-3.7c-0.1-1-0.4-1.9-1-2.7
	C279.2,442.3,277.2,441.4,275.1,440.9z"/>
<ellipse class="st14" cx="320.8" cy="397.5" rx="5.5" ry="5.5"/>
<path class="st14" d="M317.4,394.2c-1.5-0.4-3-0.1-4.3,0.6c-0.6,0.6-1.1,1.2-1.5,2c-1.2,2.1-2.2,4.3-2.8,6.7
	c-0.5,1.9-0.6,4.1-1.2,6.1c-1.1,3.6-4,6.7-4.3,10.5c-0.1,1.7,0.1,3.7-1.1,4.9c-0.3,0.3-0.6,0.5-1,0.7c-0.9,0.6-1.6,1.3-2.1,2.2
	c-0.4,0.8-0.9,1.5-1.5,2.1c-1.1,0.8-3,0.8-3.5,1.9s0.9,2.8,0.5,4.1s-1.5,1.6-2.4,2.4c-1,1.1-1.7,2.4-2.1,3.8
	c-3.7,0.7-7.5-0.2-10.4-2.6c1.3,3.8,1.8,7.9,1.6,11.9c0.2,1.3-0.2,2.6-1,3.7c4.3,0.3,8.6,1.1,12.8,2.2c1.8,0.6,3.8,0.6,5.6,0
	c1-0.5,1.8-1.2,2.6-2c2.3-2.3,4.7-4.9,5.3-8.1c0.1-1.8,0.2-3.7,0.1-5.5c0.2-2.3,0.7-4.5,1.4-6.7c1.2-4.5,2-9.1,2.4-13.8
	c0.3-2.9,2.7-5.2,4-7.7c2.5-4.9,5-9.9,5.2-15.4C319.8,396.6,319.2,394.4,317.4,394.2z"/>
<path class="st4" d="M317.4,394.2c-1.5-0.4-3-0.1-4.3,0.6c-0.6,0.6-1.1,1.2-1.5,2c-1.2,2.1-2.2,4.3-2.8,6.7
	c-0.5,1.9-0.6,4.1-1.2,6.1c-1.1,3.6-4,6.7-4.3,10.5c-0.1,1.7,0.1,3.7-1.1,4.9c-0.3,0.3-0.6,0.5-1,0.7c-0.9,0.6-1.6,1.3-2.1,2.2
	c-0.4,0.8-0.9,1.5-1.5,2.1c-1.1,0.8-3,0.8-3.5,1.9s0.9,2.8,0.5,4.1s-1.5,1.6-2.4,2.4c-1,1.1-1.7,2.4-2.1,3.8
	c-3.7,0.7-7.5-0.2-10.4-2.6c1.3,3.8,1.8,7.9,1.6,11.9c0.2,1.3-0.2,2.6-1,3.7c4.3,0.3,8.6,1.1,12.8,2.2c1.8,0.6,3.8,0.6,5.6,0
	c1-0.5,1.8-1.2,2.6-2c2.3-2.3,4.7-4.9,5.3-8.1c0.1-1.8,0.2-3.7,0.1-5.5c0.2-2.3,0.7-4.5,1.4-6.7c1.2-4.5,2-9.1,2.4-13.8
	c0.3-2.9,2.7-5.2,4-7.7c2.5-4.9,5-9.9,5.2-15.4C319.8,396.6,319.2,394.4,317.4,394.2z"/>
<path class="st14" d="M312.3,481.5c-4.7-2.2-8.1-6.4-11.9-9.9c-7.2-6.8-16-11.5-23.6-17.9c-5-4.2-9.6-9.1-15-12.6
	c-4.9-3.1-10.4-5-16.1-5.6c-0.6-0.1-1.3-0.1-1.9,0c-0.7,0.3-1.4,0.8-1.8,1.4c-2.4,2.8-4.6,5.7-6.5,8.9c-9.6,16.3-23.2,30-34.5,45.2
	c-0.3,0.3-0.5,0.7-0.6,1.1c0,0.6,0.1,1.2,0.4,1.7l2.3,4.5c1.3,2.5,3.4,5.5,6.1,5c1.2-0.4,2.4-1.1,3.2-2l10.3-9.9l10.8-10.3
	c6.3-6,12.8-12.2,16.9-20c3.2,5.6,9,9.3,12.9,14.4c1.5,1.9,2.7,4.1,4.1,6.2c2.1,3.3,4.6,6.4,7,9.6l12.4,15.8
	c1.6,2.2,3.5,4.2,5.8,5.8c3.1,1.7,6.5,2.6,10,2.7c4.7,0.4,9.3,0.6,14,0.5c3.6,0.1,7.2-0.5,10.5-1.9c3.4-1.5,5.6-4.8,5.7-8.4
	c-0.2-1.9-0.8-3.7-1.8-5.2C326.4,492.3,320.6,485.5,312.3,481.5z"/>
<ellipse class="st16" cx="324.1" cy="401.3" rx="4.2" ry="4.2"/>
<path class="st15" d="M323.2,398.1c0.9,1.9,1.1,4.1,0.5,6.1c-0.7,2-1.6,3.8-2.7,5.6c-1,1.8-2.2,3.5-3.5,5c6.5,0.3,12.8-2.2,18.5-5.3
	c4.6-2.5,9.2-5.5,11.6-10.1c-1.5,0.4-3,0.1-4.3-0.8c-1.2-0.9-2.3-1.9-3.3-3l-3.2-3.6c-0.7-0.8-1.4-1.7-1.9-2.6
	c-0.7-1.3-1-2.8-0.9-4.2c-1.3,1.3-2.7,2.5-4.3,3.6c-2.3,1.5-4.9,2.6-7.2,4.1c-0.8,0.5-2.6,1.4-2.2,2.5S322.5,397,323.2,398.1z"/>
<path class="st4" d="M323.2,398.1c0.9,1.9,1.1,4.1,0.5,6.1c-0.7,2-1.6,3.8-2.7,5.6c-1,1.8-2.2,3.5-3.5,5c6.5,0.3,12.8-2.2,18.5-5.3
	c4.6-2.5,9.2-5.5,11.6-10.1c-1.5,0.4-3,0.1-4.3-0.8c-1.2-0.9-2.3-1.9-3.3-3l-3.2-3.6c-0.7-0.8-1.4-1.7-1.9-2.6
	c-0.7-1.3-1-2.8-0.9-4.2c-1.3,1.3-2.7,2.5-4.3,3.6c-2.3,1.5-4.9,2.6-7.2,4.1c-0.8,0.5-2.6,1.4-2.2,2.5S322.5,397,323.2,398.1z"/>
<path class="st16" d="M323.3,398.8c-1.3,1.9-1.3,4.4,0,6.3c0.2,0.2,0.9,1.7,1.2,1.7c0.3,0,0.5-0.2,0.7-0.4c1.5-1.5,2.8-3.2,4.1-4.9
	c1.3-1.7,3.1-2.9,5.2-3.4c2.6-0.1,5.1,0.7,7.2,2.3c1,0.4,1.8,1.1,2.5,1.9c0.5,0.8,0.7,1.8,0.8,2.7c0.6,5.8,0.9,11.6,0.7,17.4
	c0.1,4.2-0.2,8.4-0.8,12.6c-0.4,2.1-1,4.2-1.3,6.4c-0.2,1.9-0.3,3.8-0.3,5.8v8c0,1.5,0.1,2.9,0.3,4.4c0.4,1.8,1.2,3.4,1.8,5.1
	c0.6,2,1,4,1.2,6l1.1,8.3c0.4,2.6,0.6,5.5-1,7.7c-0.7,0.9-1.6,1.7-2.4,2.6c-2.7,3.5-1.9,8.6-3,12.9c-0.9,3.2-2.7,6-5.3,8.1
	c-1.8,1.8-4.4,2.7-6.9,2.5c-3.4-0.6-5.4-4.2-6.3-7.5s-1.3-6.9-3.2-9.7c-1.8-2.1-4-3.9-6.4-5.4c-2.4-1.4-4.2-3.8-5-6.5
	c-0.2-1.2,0-2.5-0.2-3.7c-0.4-3.1-2.4-5.8-5.4-7c-1.7-0.7-3.8-0.9-4.8-2.5c2.5-1.6,4.2-4,5-6.8c0.8-2.8,1.2-5.7,1.2-8.6l0.6-9.6
	c0.3-4.3,0.4-8.6,2.3-12.5c0.8-1.7,1.9-3.4,2.8-5.1c1.2-2.4,2.2-4.9,3-7.4c1.4-4,2.8-7.9,4-11.9c0.5-1.9,1.2-3.8,2.2-5.5
	C319.8,401.3,321.3,399.1,323.3,398.8z"/>
<path class="st14" d="M301.9,461.4h2.5l0.5-3.8c0.1-0.8,0.3-1.5,0.5-2.3c0.4-0.8,0.9-1.5,1.5-2.1c2.5-3.5,2.3-8.3,2.9-12.6
	c1.1-5.7,3-11.2,5.6-16.4l5-11c0.4-0.9,0.8-1.8,1.1-2.8c0.2-1.1,0.3-2.2,0.3-3.3c0-1.7,0.5-7.9,0.6-9.6c0-0.6-1.4-0.3-1.7-0.8
	c-0.6-1.2-1.5,2.1-2.6,2.8c-1.1,0.8-1.9,2-2.3,3.3c-1.1,2.7-1.8,5.7-2.8,8.5c-0.9,2.9-2.5,5.5-4.6,7.5c-1,0.9-2.2,1.6-3.1,2.5
	c-3.1,3-3.4,7.9-3.5,12.2C301.8,436.2,301.3,461.4,301.9,461.4z"/>
<path class="st14" d="M338.6,394.2c-2.4,1.3-4.1,3.6-4.5,6.2c-0.4,2.6-1.2,5.2-2.3,7.7c-3.1,5.4-11,7-13.2,12.8c-0.6,2-0.8,4-0.9,6
	c-0.4,4.2-1.8,8.3-2.2,12.4c-0.2,3.3-0.1,6.5,0.2,9.8l2.8,33c0.5,4.9,0.3,9.8-0.8,14.5c2.9,0.4,5.8-0.1,8.3-1.4
	c2.6-1.2,5-2.8,7.5-4.2c4.3-2.4,9.1-4,12.8-7.2c0.7-0.5,1.3-1.2,1.7-1.9c0.6-1.4,1-2.8,1.1-4.3c0.3-1.2,0.7-2.3,1.3-3.4
	c1.4-3.3,2.6-6.7,3.6-10.2c0.7-2.3,1.2-4.6,1.6-7c0.3-1.9,0.5-3.8,0.6-5.8c0.2-3,0.8-5.9,1.8-8.7c2.4-6.8,3.7-13.8,4-21
	c0.1-1,0-2.1-0.2-3.1c-0.4-1.2-1-2.4-1.7-3.5c-1.1-2.2-1.9-4.5-2.9-6.8c-2.7-4.9-6.6-9-11.3-11.9
	C343.7,394.9,341.1,393.3,338.6,394.2z"/>
<path class="st15" d="M280.6,448.1c-2-1-3.8-2.4-5.3-4c-0.7-0.8-1.3-1.7-1.9-2.5c-1.8-1.9-4.1-3.3-6.6-3.8c-2.5-0.6-5.1-0.8-7.7-0.8
	c-1.7-0.1-3.5,0.1-5.1,0.6c-1.7,0.6-3,1.9-3.4,3.6c-0.1,2.1,0.8,4.2,2.6,5.4c1.5,1.2,3.3,2.1,5.2,2.5c1.5,0.3,3.1,0.5,4.7,0.6
	c9.2,1,17.4,6,25.4,10.5c7.1,4,14.3,7.7,21.6,11.2c0.3-2.2,0.4-4.4,0.4-6.6c0-1.6-0.1-4.2-1.7-5.2c-2.2-0.9-4.5-1.6-6.9-2
	c-4.7-1.5-9.4-3.4-13.8-5.6C285.5,450.8,283,449.5,280.6,448.1z"/>
<ellipse class="st15" cx="320.8" cy="379.8" rx="16.4" ry="16.5"/>
<path class="st14" d="M343.3,412.8c-1.3,1.8-2.4,3.8-3.2,5.9c-1.9,4.1-5.2,7.7-6.8,12.1s-1.6,10-4.9,13.6c-0.7,0.5-1.2,1.3-1.4,2.1
	c0,0.5-0.1,1-0.1,1.5c-0.5,1.3-2.6,1.4-3,2.7c-0.1,0.4,0,0.8-0.2,1.2c-0.3,0.9-1.5,1-2.2,1.5c-1.6,1.1-1.3,3.6-2.4,5.1
	c-1,1.2-2.6,1.7-4.1,1.4c-1.5-0.3-2.9-0.8-4.2-1.6c-0.5-0.3-1-0.4-1.5-0.5c-0.6,0-1.3,0.2-1.8,0.6c-2.9,2.2-4.6,5.7-4.4,9.3
	c0.2,3.6,1.1,7.1,2.5,10.4c0.2,0.6,0.4,1.1,0.8,1.5c1.2,0.9,2.8,1,4.1,0.3c1.3-0.7,2.6-1.3,4-1.8c2.5-0.5,5,1.3,7.6,1.1
	c1.9-0.3,3.6-1.1,5.1-2.3c2.6-1.5,4.9-3.5,6.9-5.8c1.1-1.5,1.9-3.1,2.9-4.7c1.3-1.9,2.6-3.8,4.1-5.5l9.4-11.5
	c0.9-1.1,1.8-2.3,2.5-3.5c0.8-1.7,1.5-3.5,1.9-5.3c1-3,1.7-6.2,1.9-9.4c0.1-2.6-0.2-5.3-0.7-7.9c-0.3-2.6-0.9-5.1-1.9-7.5
	C352.1,411.8,347.1,408.3,343.3,412.8z"/>
<path class="st17" d="M376.1,391.4c0-5.9-2.8-11.5-7.6-15c-0.2-10.7-8-19.7-18.6-21.3c-2.3-11.5-13.5-18.9-25-16.6
	c-8.8,1.8-15.5,8.9-16.8,17.8c-6.8-1.5-13,0.5-14.1,4.6s3.7,9.6,10.8,11.5c2.3,0.6,4.6,0.9,7,0.7c3.4,5,8.7,8.3,14.6,9.1
	c1.8,8.1,8,14.5,16,16.5c1.1,2.6,2.8,5,4.9,6.8v1.6c-0.2,7.6,5.8,14,13.5,14.2s14-5.8,14.2-13.5c0-0.2,0-0.5,0-0.7l0,0
	c0-2.1-0.4-4.2-1.3-6.1C375.3,398,376.2,394.7,376.1,391.4z"/>
<path class="st4" d="M298.6,361.7c1.1-4.2,7.4-6.2,14.1-4.6c1.7-10.4,10.6-18.1,21.1-18.2h1.4c-1.9-0.6-4-0.9-6-0.9
	c-10.5,0.1-19.4,7.8-21.1,18.2c-6.8-1.5-13,0.5-14.1,4.6s3.7,9.6,10.8,11.5c1.3,0.4,2.7,0.6,4.1,0.7C302,371,297.4,366,298.6,361.7z
	"/>
<path class="st4" d="M351.8,407.8c0-0.5,0-1,0-1.6c-2.2-1.8-3.8-4.2-4.9-6.8c-8-2-14.2-8.4-16-16.5c-5.9-0.8-11.3-4.1-14.6-9.1
	c-1.4,0.1-2.7,0.1-4.1-0.1c3.4,4.6,8.5,7.6,14.1,8.4c1.8,8.1,8,14.5,16,16.5c1.1,2.6,2.8,5,4.9,6.8v1.6c-0.1,7.7,6,14.1,13.8,14.3
	C355.4,419.2,351.7,413.8,351.8,407.8z"/>
<ellipse transform="matrix(0.7963 -0.6049 0.6049 0.7963 -165.3131 275.3724)" class="st15" cx="326.2" cy="383.2" rx="2.5" ry="3.4"/>
</svg>
