<svg id="ae37f038-3a9e-4b82-ad68-fc94ba16af2a" xmlns="http://www.w3.org/2000/svg" xmlns:xlink="http://www.w3.org/1999/xlink" viewBox="0 0 937.04 565.27"><defs><style>.cls-1,.cls-11{fill:none;}.cls-2,.cls-4{fill:#6c63ff;}.cls-11,.cls-2,.cls-5,.cls-9{opacity:0.1;}.cls-11,.cls-2,.cls-5{isolation:isolate;}.cls-3{fill:#3f3d56;}.cls-6{fill:url(#linear-gradient);}.cls-7{fill:#be6f72;}.cls-8{fill:#ff6f61;}.cls-10{fill:url(#ad310e25-2b04-44c8-bb7b-9823891);}.cls-11{stroke:#000;stroke-miterlimit:10;stroke-width:1.94px;}.cls-12{fill:url(#linear-gradient-2);}.cls-13{fill:#2f2e41;}.cls-14{fill:#fbbebe;}.cls-15{fill:#e8e8f0;}.cls-16{fill:#f86d70;}</style><linearGradient id="linear-gradient" x1="812.96" y1="-147.71" x2="812.96" y2="186.09" gradientTransform="matrix(1, 0, 0, -1, -52, 413.37)" gradientUnits="userSpaceOnUse"><stop offset="0" stop-color="gray" stop-opacity="0.25"/><stop offset="0.54" stop-color="gray" stop-opacity="0.12"/><stop offset="1" stop-color="gray" stop-opacity="0.1"/></linearGradient><pattern id="ad310e25-2b04-44c8-bb7b-9823891" data-name="ad310e25-2b04-44c8-bb7b-9823891" width="36.88" height="49.48" patternTransform="matrix(1, 0, 0, -1, -77.48, 1529.27)" patternUnits="userSpaceOnUse" viewBox="0 0 36.88 49.48"><rect class="cls-1" width="36.88" height="49.48"/><rect class="cls-1" width="36.88" height="49.48"/><path d="M4.33,36.29c4.5,0,4.51,7,0,7S-.19,36.29,4.33,36.29Z"/><path d="M4.51,32.32c4.51,0,4.52,7,0,7S0,32.32,4.51,32.32Z"/><path d="M4.51,28.54c4.51,0,4.52,7,0,7S0,28.54,4.51,28.54Z"/><path d="M3.38,24.76c4.51,0,4.51,7,0,7S-1.13,24.76,3.38,24.76Z"/><path d="M1.09,21.19l.2-.38a3.52,3.52,0,0,1,4.78-1.25,3.58,3.58,0,0,1,1.26,4.79l-.19.37A3.52,3.52,0,0,1,2.35,26,3.59,3.59,0,0,1,1.09,21.19Z"/><path d="M1.49,19.38l.18-.57a3.73,3.73,0,0,1,1.61-2.09A3.59,3.59,0,0,1,6,16.37a3.54,3.54,0,0,1,2.44,4.31l-.18.56a3.68,3.68,0,0,1-1.61,2.1,3.61,3.61,0,0,1-2.69.35A3.56,3.56,0,0,1,1.49,19.38Z"/><path d="M1.58,15.6v-.38a3.54,3.54,0,0,1,3.5-3.5,3.56,3.56,0,0,1,3.5,3.5v.38a3.54,3.54,0,0,1-3.5,3.5A3.57,3.57,0,0,1,1.58,15.6Z"/><path d="M4.89,7.18c4.51,0,4.51,7,0,7S.38,7.18,4.89,7.18Z"/><path d="M1.77,7.48V7.29a3.54,3.54,0,0,1,3.5-3.5,3.56,3.56,0,0,1,3.5,3.5v.19A3.54,3.54,0,0,1,5.27,11,3.56,3.56,0,0,1,1.77,7.48Z"/><path d="M6,.19c4.5,0,4.51,7,0,7S1.48.19,6,.19Z"/><path d="M10,35.34c4.5,0,4.51,7,0,7S5.48,35.34,10,35.34Z"/><path d="M6.59,28.54c4.51,0,4.52,7,0,7S2.08,28.54,6.59,28.54Z"/><path d="M8.48,22.48c4.51,0,4.51,7,0,7S4,22.48,8.48,22.48Z"/><path d="M8.48,20.22c4.51,0,4.51,7,0,7S4,20.22,8.48,20.22Z"/><path d="M14.91,15.69c4.5,0,4.51,7,0,7S10.4,15.69,14.91,15.69Z"/><path d="M9.81,11c4.5,0,4.51,7,0,7S5.29,11,9.81,11Z"/><path d="M10.56,4.35c4.51,0,4.51,7,0,7S6.05,4.35,10.56,4.35Z"/><path d="M10.56,0c4.51,0,4.51,7,0,7S6.05,0,10.56,0Z"/><path d="M12.83,31.36c2.57,0,2.58,4,0,4S10.25,31.36,12.83,31.36Z"/><path d="M13,29.09c2.57,0,2.58,4,0,4S10.42,29.09,13,29.09Z"/><path d="M13.1,28.48v-.19a2,2,0,0,1,4,0v.19a2,2,0,0,1-4,0Z"/><path d="M15.1,23.61c2.57,0,2.58,4,0,4S12.52,23.61,15.1,23.61Z"/><path d="M16.61,38.41a1,1,0,1,1-1,1A1,1,0,0,1,16.61,38.41Z"/><path d="M21.71,32.93a1,1,0,1,1-1,1A1,1,0,0,1,21.71,32.93Z"/><path d="M16.85,40.54v.38a1,1,0,0,1-2,0v-.38a1,1,0,1,1,2,0Z"/><path d="M16.48,44.7v.19a1,1,0,0,1-2,0V44.7a1,1,0,0,1,2,0Z"/><path d="M15.48,47.48a1,1,0,1,1-1,1A1,1,0,0,1,15.48,47.48Z"/><path d="M10.56,47.48a1,1,0,1,1-1,1A1,1,0,0,1,10.56,47.48Z"/><path d="M10.37,44.83a1,1,0,1,1-1,1A1,1,0,0,1,10.37,44.83Z"/><path d="M7.35,43.32a1,1,0,1,1-1,1A1,1,0,0,1,7.35,43.32Z"/><path d="M11.88,42.38h.38a1,1,0,0,1,0,2h-.38a1,1,0,1,1,0-2Z"/><path d="M13.28,38.48l.57-1.32a1,1,0,0,1,1.37-.36h0a1,1,0,0,1,.36,1.37h0L15,39.48a1,1,0,0,1-1.37.36h0A1,1,0,0,1,13.28,38.48Z"/><path d="M18.44,30.15V30a1,1,0,1,1,2,0v.19a1,1,0,0,1-2,0Z"/><path d="M20.68,24.55l.19-.38c.57-1.15,2.3-.14,1.72,1l-.19.38C21.83,26.7,20.1,25.69,20.68,24.55Z"/><path d="M22.13,20.1a2.48,2.48,0,0,1-.84-1.86,1,1,0,0,1,2,0,.56.56,0,0,0,.25.44,1,1,0,0,1,0,1.41h0A1,1,0,0,1,22.13,20.1Z"/><path d="M20.32,16.07l-.54-1.71c-.38-1.23,1.55-1.76,1.93-.53l.54,1.71C22.63,16.77,20.7,17.3,20.32,16.07Z"/><path d="M19.44,12.48h-.19a1,1,0,0,1,0-2h.19a1,1,0,0,1,0,2Z"/><path d="M17.64,8l-.19-.38c-.58-1.15,1.15-2.16,1.72-1l.19.38C19.94,8.13,18.21,9.14,17.64,8Z"/><path d="M15.8,1.61V1a1,1,0,0,1,2,0v.56a1,1,0,1,1-2,0Z"/><path d="M14.34,0a1,1,0,1,1-1,1A1,1,0,0,1,14.34,0Z"/><path d="M14.34,8.17a1,1,0,1,1-1,1A1,1,0,0,1,14.34,8.17Z"/><path d="M17.13,13a2,2,0,0,1,1,1.64,1,1,0,0,1-2,0c0,.13.19.2,0,.08C15,14.15,16,12.43,17.13,13Z"/><path d="M17.37,18.19a1,1,0,1,1-1,1A1,1,0,0,1,17.37,18.19Z"/><path d="M18.12,21a1,1,0,1,1-1,1A1,1,0,0,1,18.12,21Z"/><path d="M19,24.54l.19.38c.58,1.15-1.15,2.16-1.72,1l-.19-.38C16.7,24.39,18.43,23.38,19,24.54Z"/><path d="M17.93,33.48a1,1,0,1,1-1,1A1,1,0,0,1,17.93,33.48Z"/><path d="M24.64,33.43l.57-.94a1,1,0,0,1,1.72,1l-.56,1a1,1,0,0,1-1.73-1Z"/><path d="M34.88,19.76v-.19a1,1,0,1,1,2,0v.19a1,1,0,0,1-2,0Z"/><path d="M24,10.25a1,1,0,1,1-1,1A1,1,0,0,1,24,10.25Z"/><path d="M22.85,20.48a1,1,0,1,1-1,1A1,1,0,0,1,22.85,20.48Z"/><path d="M18.24,27.58l.57.56c.93.89-.48,2.3-1.41,1.41L16.82,29C15.89,28.1,17.31,26.69,18.24,27.58Z"/></pattern><linearGradient id="linear-gradient-2" x1="307.35" y1="-125.03" x2="307.35" y2="68.78" xlink:href="#linear-gradient"/></defs><title>phone</title><ellipse class="cls-2" cx="468.52" cy="461.11" rx="468.52" ry="11.31"/><ellipse class="cls-2" cx="468.52" cy="553.96" rx="468.52" ry="11.31"/><ellipse class="cls-2" cx="468.52" cy="267.32" rx="468.52" ry="11.31"/><ellipse class="cls-2" cx="468.52" cy="364.21" rx="468.52" ry="11.31"/><circle class="cls-3" cx="765.49" cy="129.44" r="129.44"/><path class="cls-4" d="M830.94,172.3c-4.51-4.51-15.34-11.3-20.72-13.84-6.2-3-8.48-2.93-12.87.25-3.65,2.59-6,5.09-10.22,4.17s-12.51-7.19-20.55-15.2-14.28-16.28-15.18-20.54,1.57-6.58,4.18-10.23c3.16-4.39,3.25-6.67.25-12.87-2.59-5.37-9.31-16.19-13.86-20.72s-5.53-3.54-8-2.59a46.36,46.36,0,0,0-7.34,3.88c-4.51,3-7,5.53-8.81,9.31s-3.78,10.8,6.54,29.17A162.76,162.76,0,0,0,753,161.25h0a163,163,0,0,0,38.29,28.67c18.36,10.36,25.39,8.3,29.17,6.54s6.29-4.26,9.3-8.81a45.75,45.75,0,0,0,3.88-7.34C834.47,177.83,835.48,176.82,830.94,172.3Z" transform="translate(-9.88 -9.47)"/><path class="cls-5" d="M775.37,9.49A129.49,129.49,0,1,0,904.8,139v-.13A129.49,129.49,0,0,0,775.37,9.49Zm0,241.66A112.23,112.23,0,1,1,887.6,138.92h0A112.23,112.23,0,0,1,775.37,251.15h0Z" transform="translate(-9.88 -9.47)"/><circle class="cls-3" cx="468.11" cy="326.05" r="129.44"/><path class="cls-4" d="M551.61,296.42l-38.76,39.43a.7.7,0,0,0,0,1l0,0L540,365.78a4.68,4.68,0,1,1-6.62,6.62l-27.05-28.81a.74.74,0,0,0-1,0l-6.59,6.66A29,29,0,0,1,478,359a29.6,29.6,0,0,1-21.08-9l-6.33-6.47a.74.74,0,0,0-1,0l-27,28.75a4.67,4.67,0,0,1-6.61,0h0a4.66,4.66,0,0,1,0-6.59l0,0,27.09-28.85a.78.78,0,0,0,0-1l-38.76-39.43a.71.71,0,0,0-1.22.51v78.9a11.55,11.55,0,0,0,11.51,11.51H541.34a11.55,11.55,0,0,0,11.51-11.51V296.92a.71.71,0,0,0-1.24-.51Z" transform="translate(-9.88 -9.47)"/><path class="cls-4" d="M478,349.59a19.61,19.61,0,0,0,14.14-5.83l56.45-57.46a11.27,11.27,0,0,0-7.12-2.59H414.63a11.19,11.19,0,0,0-7.12,2.59L464,343.76A19.53,19.53,0,0,0,478,349.59Z" transform="translate(-9.88 -9.47)"/><path class="cls-5" d="M476.36,206.1A129.49,129.49,0,1,0,605.79,335.66v-.13A129.49,129.49,0,0,0,476.36,206.1Zm0,241.66A112.23,112.23,0,1,1,588.59,335.53h0A112.23,112.23,0,0,1,476.36,447.76Z" transform="translate(-9.88 -9.47)"/><circle class="cls-3" cx="160.91" cy="229.38" r="129.44"/><path class="cls-4" d="M170.79,176.92,119.19,296,124,300.8l46.8-20.64,46.8,20.64,4.82-4.82Z" transform="translate(-9.88 -9.47)"/><path class="cls-5" d="M170.79,109.38A129.49,129.49,0,1,0,300.22,238.94v-.06A129.49,129.49,0,0,0,170.79,109.38Zm0,241.66A112.23,112.23,0,1,1,283,238.81v.06A112.23,112.23,0,0,1,170.79,351.09Z" transform="translate(-9.88 -9.47)"/><path class="cls-6" d="M803.32,311.51q-2.64-6.44-5.41-12.84a38.12,38.12,0,0,0-6.61-11.43,12.1,12.1,0,0,0-3.88-2.91,16.54,16.54,0,0,0-5.06-1,40.4,40.4,0,0,0-8-.21c-1-.31-2.19-.72-3.34-1.18a27.7,27.7,0,0,0,20.64-25.7V255a27.64,27.64,0,0,0-27.52-27.76h0a27.16,27.16,0,0,0-14.45,4.13,25.93,25.93,0,0,0-29.1,14,32.06,32.06,0,0,0-9.89,23.86v1.22c.5,15.07,10.24,27.16,22.54,28.38a12.92,12.92,0,0,0-3.57,2.39c-3.76,3.63-4.38,9.39-4.79,14.63l-.29,3.88-6.52,2.33a1.2,1.2,0,0,0-.29,2.11l6.23,4.44v1.11a4.85,4.85,0,0,0,.12,1.26,8.9,8.9,0,0,0-2.41,3.43,15.87,15.87,0,0,0-.56,6.28l.23,5.41a42.5,42.5,0,0,0,1.65,12c.81,2.41,4.35,8.21,6.89,8.24-2.35,10.67-3,33.17-3,33.17-.29.29.52.56,1.94.8,1.4,10.71,6,40.74,14,53.94a113.75,113.75,0,0,1,3,13.11s2.31,28.53,5.35,37c2.6,7.22,4.66,25,5.22,30.18a3,3,0,0,0-2.15,2.21c-1.53,4.62-11.46,11.64-11.46,11.64A48,48,0,0,0,734.4,554c-3.12,2.81-3,5.35,10.86,3.76,26.77-3.08,31.35-11.64,31.35-11.64s-.43-1.44-1.07-3.3a35.81,35.81,0,0,0-3.51-8.28c-.39-.37-.78.25-1.24,1.22A166.1,166.1,0,0,1,769,498.33s.76-13.11-3.06-22.37a42.35,42.35,0,0,1,0-14.65c1.53-6.17-6.11-36.25-6.11-36.25l-4.38-22.15a6.36,6.36,0,0,1,1.22,2.58l.12.45.12.64a1.2,1.2,0,0,0,.31.6c3,12.41,11.17,46.81,11.17,51.85,0,6.17,7.64,21.59,7.64,21.59s3,25.45,8.4,35.46c4.07,7.62,4.17,18.8,4,23.72h0s-.91,6.34-2.44,7.88a18.74,18.74,0,0,0-2.89,5l-.17.37s-2.29,4.64-.76,5.41a37.57,37.57,0,0,0,18.35,2.31s3.06-3.88,3.06-5.39a24.29,24.29,0,0,0-.35-2.75c-.56-3.65-1.61-9.39-1.63-9.45.64-2.48-1.94-9.39-1.94-9.39l-.78-21.59a99.67,99.67,0,0,0-5.35-43.2s-3.88-13.87-3-17.73-1.53-44.73-1.53-44.73l-.23-.58a44.18,44.18,0,0,1,.23-8.67c.76-9.25-2.29-28.53-3.06-29.29a25.41,25.41,0,0,1-1.09-6.38c.17-1.61.7-6.32,1.42-12.18a219,219,0,0,0,22.54-1.94,2.81,2.81,0,0,0,1.94-.78,2.72,2.72,0,0,0,.45-1.57C812,333.54,807.72,322.26,803.32,311.51ZM787.94,336c.8-5.53,1.65-10.88,2.5-14.86l.12.35a108,108,0,0,1,3.69,12.22A41.58,41.58,0,0,1,787.94,336Z" transform="translate(-9.88 -9.47)"/><path class="cls-7" d="M728.52,398.41s4.58,41.18,14.49,57.18a111,111,0,0,1,3,13s2.29,28.2,5.33,36.58,5.33,31.27,5.33,31.27,10.67,12.18,14.49,2.29A160.65,160.65,0,0,1,768.93,499s.76-13-3-22.11a41.36,41.36,0,0,1,0-14.47c1.51-6.11-6.11-35.83-6.11-35.83l-6.09-29.74Z" transform="translate(-9.88 -9.47)"/><path class="cls-8" d="M776.55,546.32S772,554.7,745.3,557.74c-13.85,1.57-13.95-.93-10.82-3.72a48.3,48.3,0,0,1,8.54-5.43s9.91-6.85,11.43-11.43,6.87-.76,6.87-.76c7.62,11.43,9.16-3.06,10.67-1.53a34.39,34.39,0,0,1,3.51,8.17C776.12,544.88,776.55,546.32,776.55,546.32Z" transform="translate(-9.88 -9.47)"/><path class="cls-5" d="M776.55,546.32S772,554.7,745.3,557.74c-13.85,1.57-13.95-.93-10.82-3.72,2.17,1.38,6.56,1.94,15.38-1.61,12.71-5.2,21.92-8.21,25.62-9.37C776.12,544.88,776.55,546.32,776.55,546.32Z" transform="translate(-9.88 -9.47)"/><path class="cls-5" d="M768.93,499s.76-13-3-22.11a41.36,41.36,0,0,1,0-14.47c1.51-6.11-6.11-35.83-6.11-35.83l-6.09-29.74-5.28.31,6,29.43s7.62,29.72,6.11,35.83a41.36,41.36,0,0,0,0,14.47c3.88,9.16,3,22.11,3,22.11a160.65,160.65,0,0,0,2.29,39.65,6.67,6.67,0,0,1-2.21,3.14c2.83,1.28,5.82,1.22,7.55-3.14A160.65,160.65,0,0,1,768.93,499Z" transform="translate(-9.88 -9.47)"/><path class="cls-3" d="M764,231.09a27.16,27.16,0,0,0-14.39,4.09A25.9,25.9,0,0,0,720.47,249a31.58,31.58,0,0,0-9.87,23.59C710.6,288.85,721.52,302,735,302c9.7,0,18.2-6.91,22.09-16.9a26.77,26.77,0,0,0,6.87.89,27.45,27.45,0,0,0,0-54.9Z" transform="translate(-9.88 -9.47)"/><path class="cls-7" d="M786.46,402.23l2.29,6.09s2.29,40.41,1.51,44.23S793.33,470,793.33,470a97.59,97.59,0,0,1,5.33,42.67l.76,21.34s3,8.38,1.53,9.91-13-1.36-13-1.36,1.53-16-3.88-25.92-8.38-35.07-8.38-35.07-7.62-15.25-7.62-21.34-12.2-55.65-12.2-55.65Z" transform="translate(-9.88 -9.47)"/><path class="cls-3" d="M727,401.48s.78-27.45,3.88-35.83a56.9,56.9,0,0,0,3.39-12.16s46.15,8.34,50,5.3c0,0,.76,10.67,1.53,11.43s3.88,19.82,3,29,0,9.14,0,9.14-31.27,4.58-32,0-3-4.56-3-4.56S725.48,402.91,727,401.48Z" transform="translate(-9.88 -9.47)"/><g class="cls-9"><path d="M752.15,401.48S732.87,401,727,399.9v1.57c-1.51,1.51,26.69,2.29,26.69,2.29a1.94,1.94,0,0,1,1,.43C753.76,401.48,752.15,401.48,752.15,401.48Z" transform="translate(-9.88 -9.47)"/><path d="M785.71,370.21c-.78-.76-1.53-11.43-1.53-11.43a3.28,3.28,0,0,1-1.3.47c.27,3.22.8,8.17,1.3,8.67s3.88,19.82,3,29,0,9.14,0,9.14-24.73,3.63-30.73,1.2a9.2,9.2,0,0,0,.23,1.09c.76,4.58,32,0,32,0s-.78,0,0-9.14S786.46,371,785.71,370.21Z" transform="translate(-9.88 -9.47)"/><path class="cls-10" d="M752.15,401.48S732.87,401,727,399.9v1.57c-1.51,1.51,26.69,2.29,26.69,2.29a1.94,1.94,0,0,1,1,.43C753.76,401.48,752.15,401.48,752.15,401.48Z" transform="translate(-9.88 -9.47)"/><path class="cls-10" d="M785.71,370.21c-.78-.76-1.53-11.43-1.53-11.43a3.28,3.28,0,0,1-1.3.47c.27,3.22.8,8.17,1.3,8.67s3.88,19.82,3,29,0,9.14,0,9.14-24.73,3.63-30.73,1.2a9.2,9.2,0,0,0,.23,1.09c.76,4.58,32,0,32,0s-.78,0,0-9.14S786.46,371,785.71,370.21Z" transform="translate(-9.88 -9.47)"/></g><path class="cls-7" d="M760.59,279.11a10.11,10.11,0,0,0,2.91,3.76,6.52,6.52,0,0,0,2.74,1.18c-1.71,1-3.57,1.73-5.28,2.72a93.81,93.81,0,0,0-7.76,5.82,15.79,15.79,0,0,1-8.9,3.45,10.9,10.9,0,0,0,1.24-10.84,10.13,10.13,0,0,1-1.36-3.76c0-2.19,1.94-3.88,3.74-5,1.45-1,2.95-1.94,4.46-2.89,1.18-.74,3-2.29,4.46-2.23s1.67,1.38,1.94,2.74A21.51,21.51,0,0,0,760.59,279.11Z" transform="translate(-9.88 -9.47)"/><path class="cls-5" d="M760.59,279.11a10.11,10.11,0,0,0,2.91,3.76,6.52,6.52,0,0,0,2.74,1.18c-1.71,1-3.57,1.73-5.28,2.72a93.81,93.81,0,0,0-7.76,5.82,15.79,15.79,0,0,1-8.9,3.45,10.9,10.9,0,0,0,1.24-10.84,10.13,10.13,0,0,1-1.36-3.76c0-2.19,1.94-3.88,3.74-5,1.45-1,2.95-1.94,4.46-2.89,1.18-.74,3-2.29,4.46-2.23s1.67,1.38,1.94,2.74A21.51,21.51,0,0,0,760.59,279.11Z" transform="translate(-9.88 -9.47)"/><circle class="cls-7" cx="768.58" cy="297.09" r="17.54"/><path class="cls-8" d="M803.22,555.45c0,1.53-3,5.33-3,5.33a37.75,37.75,0,0,1-18.29-2.29c-1.53-.76.76-5.33.76-5.33l.17-.37a18.51,18.51,0,0,1,2.89-5c1.51-1.51,2.42-7.76,2.42-7.76,4.73-7.76,13.13,3.36,13.13,3.36s1.07,5.82,1.63,9.35A26.58,26.58,0,0,1,803.22,555.45Z" transform="translate(-9.88 -9.47)"/><path class="cls-5" d="M803.22,555.45c0,1.53-3,5.33-3,5.33a37.75,37.75,0,0,1-18.29-2.29c-1.53-.76.76-5.33.76-5.33l.17-.37a36.85,36.85,0,0,0,16.6,3.41l3.47-3.47C803.09,554,803.22,555.07,803.22,555.45Z" transform="translate(-9.88 -9.47)"/><circle class="cls-7" cx="733.5" cy="260.48" r="17.15"/><path class="cls-7" d="M729.55,304.25c-3.76,3.59-4.38,9.27-4.77,14.45l-.58,7.58a38.25,38.25,0,0,0-.14,6.15c0,1.26.31,2.54.43,3.88s.16,3,.17,4.56v11.21a13.23,13.23,0,0,0,1.24,6.73,4.58,4.58,0,0,0,5.82,2.09,6.63,6.63,0,0,0,2.41-3.72A57.9,57.9,0,0,0,738,343c.16-1.69.17-3.38.33-5.06s.45-3.45.7-5.16c1.09-7.14,1.57-14.35,2.06-21.55.14-2.13,2.06-10.53-.74-11.46-1.36-.45-4.17,1-5.47,1.42A15.4,15.4,0,0,0,729.55,304.25Z" transform="translate(-9.88 -9.47)"/><path class="cls-5" d="M729.55,304.25c-3.76,3.59-4.38,9.27-4.77,14.45l-.58,7.58a38.25,38.25,0,0,0-.14,6.15c0,1.26.31,2.54.43,3.88s.16,3,.17,4.56v11.21a13.23,13.23,0,0,0,1.24,6.73,4.58,4.58,0,0,0,5.82,2.09,6.63,6.63,0,0,0,2.41-3.72A57.9,57.9,0,0,0,738,343c.16-1.69.17-3.38.33-5.06s.45-3.45.7-5.16c1.09-7.14,1.57-14.35,2.06-21.55.14-2.13,2.06-10.53-.74-11.46-1.36-.45-4.17,1-5.47,1.42A15.4,15.4,0,0,0,729.55,304.25Z" transform="translate(-9.88 -9.47)"/><path class="cls-8" d="M765.11,281s-13,9.91-20.58,12.2c0,0-4.52,5.16-5.3,6.4s-2.33,14.94-3.88,18-5.33,9.91,0,16.76c0,0,1.51,6.87.76,9.16s-3.53,10.67-1,11.06,10.16,5.7,17,4.19,32.41,5.82,32.41,5.82,4.23-39.28,7.29-46.22L785,316.09s-19-11.43-7.62-29C777.31,287.13,766.6,284.84,765.11,281Z" transform="translate(-9.88 -9.47)"/><path class="cls-3" d="M717.8,326.93l15.75,11.15a1.16,1.16,0,0,0,1.38,0l4.27-3.2a1.2,1.2,0,0,0,.13-1.7l-.13-.13-12.12-10.77a1.16,1.16,0,0,0-1.18-.23l-7.78,2.79a1.18,1.18,0,0,0-.31,2.08Z" transform="translate(-9.88 -9.47)"/><path class="cls-7" d="M723.09,360.53a42.21,42.21,0,0,1-1.65-11.89l-.23-5.37a15.52,15.52,0,0,1,.56-6.21,10.15,10.15,0,0,1,6.54-5.72,22.58,22.58,0,0,1,8.9-.64,2.29,2.29,0,0,1,1.14.31,2.13,2.13,0,0,1,.62,1,7,7,0,0,1,.35,5.61,5.82,5.82,0,0,1-1.78,1.84C735.43,341,733,342,731,343.67a2.39,2.39,0,0,0-.89,1.13,2.62,2.62,0,0,0,0,1.22,19.56,19.56,0,0,0,1,3.12,3.08,3.08,0,0,0,.87,1.32c.37.31.85.43,1.24.72.83.68,2.58,1.57,2.48,2.64-.29,3.88-2.62,8.22-3.53,12.07C730.4,373.39,724.22,363.81,723.09,360.53Z" transform="translate(-9.88 -9.47)"/><g class="cls-9"><path d="M747.59,358.78h-.43a13.05,13.05,0,0,0,5,0h.48A17.46,17.46,0,0,0,747.59,358.78Z" transform="translate(-9.88 -9.47)"/><path d="M787.61,317.23c-2.74,6.15-6.77,39.45-7.49,46.07,2.68.7,4.44,1.2,4.44,1.2s4.19-39.18,7.25-46.13Z" transform="translate(-9.88 -9.47)"/></g><path class="cls-7" d="M779.05,307.11a5.82,5.82,0,0,0,2.5,3.78,33.58,33.58,0,0,1,4.44,4.5,31.87,31.87,0,0,1,4.4,8.83,108.15,108.15,0,0,1,3.67,12.07c-9.7,4.5-20.72,4.29-31,7.25a24.77,24.77,0,0,0-11.64,6.89A16,16,0,0,0,747.11,363a1.65,1.65,0,0,0,.23.76,1.63,1.63,0,0,0,1.36.54,11.64,11.64,0,0,0,7.12-2.44,33.87,33.87,0,0,0,5.45-5.35,8.77,8.77,0,0,1,3.88-2.87c5.61-1.71,11.64-1.61,17.46-1.71a220,220,0,0,0,26-2.06,2.09,2.09,0,0,0,2.33-2.33c.85-11.44-3.39-22.62-7.76-33.23q-2.62-6.38-5.39-12.71a37.63,37.63,0,0,0-6.6-11.29,11.64,11.64,0,0,0-3.88-2.87,16.41,16.41,0,0,0-5.2-1,36.86,36.86,0,0,0-8.52-.16,18.15,18.15,0,0,0-.81,4.4c.16,5.24,2.44,10.14,4.69,14.88C777.77,306.37,778.61,306.41,779.05,307.11Z" transform="translate(-9.88 -9.47)"/><path class="cls-11" d="M748,316.92a14.22,14.22,0,0,0-1.94,7.41,10,10,0,0,0,.48,3,9.82,9.82,0,0,0,6.19,5.82" transform="translate(-9.88 -9.47)"/><path class="cls-3" d="M757.87,253.2a8.9,8.9,0,0,0-2.81.45c-2.54-3.88-8.52-6.56-15.52-6.56-9.27,0-16.78,4.79-16.78,10.69s7.51,10.67,16.78,10.67a23.61,23.61,0,0,0,10.07-2.13,9.14,9.14,0,1,0,8.22-13.11Z" transform="translate(-9.88 -9.47)"/><path class="cls-5" d="M758.63,269.2A9.12,9.12,0,0,1,750.4,264a23.61,23.61,0,0,1-10.07,2.13c-9.25,0-16.76-4.77-16.76-10.67a6.42,6.42,0,0,1,0-1.07,7.24,7.24,0,0,0-.85,3.36c0,5.82,7.51,10.67,16.78,10.67a23.61,23.61,0,0,0,10.07-2.13A9.14,9.14,0,0,0,766.78,264,9.1,9.1,0,0,1,758.63,269.2Z" transform="translate(-9.88 -9.47)"/><path class="cls-5" d="M720.49,253.55a25.9,25.9,0,0,1,29.1-13.87,27.43,27.43,0,0,1,41.74,21.07v-2.29a27.43,27.43,0,0,0-41.84-23.28A25.9,25.9,0,0,0,720.4,249a31.58,31.58,0,0,0-9.87,23.59v2.29A31,31,0,0,1,720.49,253.55Z" transform="translate(-9.88 -9.47)"/><path class="cls-12" d="M384,398.72a18.83,18.83,0,0,0-7.5-15.2A22.07,22.07,0,0,0,358,361.88a22,22,0,0,0-14.68-16.41h0a18.73,18.73,0,0,0-2.73-.63H337.4a21.61,21.61,0,0,0-20.88,18.46c-6.74-1.55-12.9.46-14,4.72a5.76,5.76,0,0,0,.19,3.42c1.15,3.3,4.89,6.47,9.9,8l.65.19,1,.25h.21a17,17,0,0,0-1.61,7.27,16.77,16.77,0,0,0,9,15l-.44.27a6,6,0,0,0-1.46,2,30.43,30.43,0,0,0-2.82,6.79c-.48,2-.56,4.15-1.15,6.16-1.11,3.7-4,6.83-4.28,10.69-.15,1.73.13,3.84-1.09,5a6,6,0,0,1-1,.69A7.92,7.92,0,0,0,307.5,436a7.45,7.45,0,0,1-1.5,2.15c-1.11.83-2.94.75-3.47,2s.86,2.8.54,4.2-1.52,1.67-2.38,2.46a8.54,8.54,0,0,0-2.05,3.84A12.59,12.59,0,0,1,288.27,448a19.36,19.36,0,0,1,1.07,3.84,16.81,16.81,0,0,0-5.58-2.8,17.64,17.64,0,0,1-5.95-4.41l3.19-.44-14.07-21.47-4.16-.86,3.72,7.16a2.28,2.28,0,0,0-1.27,1.52,6.5,6.5,0,0,0-.13,2.44,43.61,43.61,0,0,0,1,5.76l1.07,5c.1.46.21.94.35,1.4a13.22,13.22,0,0,0-4.16.46,36.23,36.23,0,0,0-8.65-2.05,4.8,4.8,0,0,0-1.92,0,5,5,0,0,0-1.82,1.48,59,59,0,0,0-6.43,9.06c-7.68,13.16-17.67,24.66-27.13,36.56-6.52,2.65-13.11,5.16-19.69,7.68l-14.16,5.41a21.47,21.47,0,0,1-8.79,1.92c-1.34,0-3-.29-3.84.86a8.08,8.08,0,0,0-.86,1.92l-1.46.15h0a16.77,16.77,0,0,0-3.4-6.26,2.15,2.15,0,0,0-1.59,1.23c-.35.63-.56,1.32-1,1.92-.75,1.11-2.07,1.65-3,2.59s-1.54,2.4-2.57,3.36a10.17,10.17,0,0,1-4.82,1.92,30.4,30.4,0,0,0-7.54,2.86,12.15,12.15,0,0,1-2.78,1.29,10.46,10.46,0,0,1-3.28.12l-7.48-.56a5.91,5.91,0,0,0-2,.1,3.84,3.84,0,0,0-2.38,3.84,6,6,0,0,0,2.38,4.13,15.24,15.24,0,0,0,4.26,2.21,125,125,0,0,0,20,5.91v1.52a34.06,34.06,0,0,0,15.35,3.65,2.38,2.38,0,0,0,1.15-.21,2.53,2.53,0,0,0,1-1.5,61.74,61.74,0,0,0,3-14.7h0a7.68,7.68,0,0,0,2.71-.69c2.57-.71,5.14,1.06,7.81,1.34,3.28.36,6.31-1.55,9.42-2.72l1.34-.44a14.74,14.74,0,0,1-3.11,3c-1.29.92-2.73,1.61-4,2.57a27.36,27.36,0,0,1-3.38,2.61,21.21,21.21,0,0,1-2.59,1,17.1,17.1,0,0,0-3.7,1.92,7.5,7.5,0,0,0-2.51,2.46,3.68,3.68,0,0,0-.21,3.45,3.65,3.65,0,0,0,2.48,1.73,10.15,10.15,0,0,0,3.05,0c4.07-.31,8.12-.67,12.17-1a32.46,32.46,0,0,0,5.09-.73c.88-.21,1.77-.5,2.65-.75a23.62,23.62,0,0,1,4.62-.69,3.84,3.84,0,0,1,1.34.13c.94.31,1.61,1.27,2.57,1.46a3.84,3.84,0,0,0,1.92-.25,42.8,42.8,0,0,1,9-1c1.32,0,2.88-.33,3.49-1.55s-.5-3.2-1-4.84a14.79,14.79,0,0,1-.42-3.19,19.94,19.94,0,0,0-2.23-7.56,19.74,19.74,0,0,1-1.67-3.45,87.26,87.26,0,0,0,16.56-8.41,29.61,29.61,0,0,1,9.44-4.55,25.68,25.68,0,0,1,11.86,1.38,269.84,269.84,0,0,1,27.19,9.48c4.24,1.75,8.46,3.59,12.84,4.91a20,20,0,0,0,4.57,4.43,21.11,21.11,0,0,0,9.88,2.71,129.5,129.5,0,0,0,13.91.52,23.47,23.47,0,0,0,10.36-1.92,10.65,10.65,0,0,0,2.17-1.44,8.6,8.6,0,0,0,6.83-2.51,16.56,16.56,0,0,0,5.2-8.21c1.13-4.38.27-9.6,3-13.09.71-1,1.65-1.73,2.36-2.69A7.56,7.56,0,0,0,356,491a.9.9,0,0,1,.12-.17,16.25,16.25,0,0,0,1.15-4.41,25.21,25.21,0,0,1,1.25-3.49,107.84,107.84,0,0,0,3.57-10.34,60.43,60.43,0,0,0,1.65-7.1c.29-1.92.46-3.84.61-5.76a35.75,35.75,0,0,1,1.75-8.89,72.31,72.31,0,0,0,4-21.26v-.42a14.26,14.26,0,0,0,12.63-14.51,15.14,15.14,0,0,0-1.32-6.2A19.19,19.19,0,0,0,384,398.72Zm-68.66,83.42c.21.75.46,1.48.71,2.21-1.13-1.09-2.23-2.23-3.36-3.34.44.15.9.29,1.32.46a7.16,7.16,0,0,1,1.27.67Zm-5.43-3.68c-6.64-5.76-14.32-10.23-21.11-15.81,3.7,1.82,7.31,4,10.88,6q6.35,3.63,12.88,7a10.54,10.54,0,0,1-2.71,2.86ZM312.72,464l.33-.33v2.28l-1.78-.61a15.89,15.89,0,0,0,1.4-1.34Zm-58.4,15.54a54.94,54.94,0,0,0,7.06-10.07c2.63,4.59,6.91,7.91,10.54,11.76C266.07,480.44,260.2,479.8,254.33,479.49Z" transform="translate(-9.88 -9.47)"/><polygon class="cls-13" points="253.89 414.14 258.07 414.98 272.33 436.07 266.06 436.92 253.89 414.14"/><path class="cls-14" d="M162.33,509.16A82.1,82.1,0,0,0,166.51,520a103.63,103.63,0,0,0,13.91-4,43.87,43.87,0,0,0-2.9-3.84,14.32,14.32,0,0,0-3.93-3,10.82,10.82,0,0,0-4.78,0C166.66,509.16,164.5,509.2,162.33,509.16Z" transform="translate(-9.88 -9.47)"/><path class="cls-13" d="M173.61,514.79a8.67,8.67,0,0,1-4.76-5.41,17.42,17.42,0,0,0-3.63-6.47,2.07,2.07,0,0,0-1.61,1.21c-.35.61-.56,1.3-.94,1.92-.77,1.09-2.11,1.63-3.07,2.55s-1.54,2.36-2.57,3.3a10.21,10.21,0,0,1-4.86,1.92,31.49,31.49,0,0,0-7.68,2.82,13.24,13.24,0,0,1-2.82,1.27,11.17,11.17,0,0,1-3.3,0l-7.56-.54a5.91,5.91,0,0,0-1.92,0,3.67,3.67,0,0,0-2.4,3.84,5.76,5.76,0,0,0,2.4,4.07,15.93,15.93,0,0,0,4.3,2.19,126.47,126.47,0,0,0,20.26,5.76v1.5a35.08,35.08,0,0,0,15.45,3.59,2.61,2.61,0,0,0,1.15-.19,2.53,2.53,0,0,0,1-1.5,59.87,59.87,0,0,0,3.17-16.43,13.09,13.09,0,0,0-.33-4.24c-.42-1.36,1-.79-.31-1.32" transform="translate(-9.88 -9.47)"/><path class="cls-13" d="M318.61,486.29c-22.41,1.34-44.56-5.22-67-5.91a32.72,32.72,0,0,0-8.33.52,42,42,0,0,0-8.25,3.2c-12,5.6-24.49,10.25-36.92,14.87l-14.3,5.32a21.65,21.65,0,0,1-8.85,1.92c-1.36,0-3-.29-3.84.84-2.32,3.45-1.23,8.5.31,12.38.5,1.25,1.34,2.61,2.69,2.74a7.81,7.81,0,0,0,2.73-.69c2.59-.69,5.18,1.06,7.87,1.34,3.3.35,6.37-1.54,9.5-2.69,5.18-1.92,10.82-1.92,16.27-2.76,9.12-1.52,17.58-5.76,25.48-10.57a29.75,29.75,0,0,1,9.5-4.49,26.29,26.29,0,0,1,12,1.36A274.43,274.43,0,0,1,284.84,513a127.81,127.81,0,0,0,14.32,5.24,51.81,51.81,0,0,0,32.11-1.92c3.59-1.42,7.48-3.84,7.68-7.79.13-2.21-1.59-4.15-2.73-6-.73-1.21-1.48-2.42-2.26-3.59C330.11,493.33,325.43,485.89,318.61,486.29Z" transform="translate(-9.88 -9.47)"/><path class="cls-5" d="M318.61,486.29c-22.41,1.34-44.56-5.22-67-5.91a32.72,32.72,0,0,0-8.33.52,42,42,0,0,0-8.25,3.2c-12,5.6-24.49,10.25-36.92,14.87l-14.3,5.32a21.65,21.65,0,0,1-8.85,1.92c-1.36,0-3-.29-3.84.84-2.32,3.45-1.23,8.5.31,12.38.5,1.25,1.34,2.61,2.69,2.74a7.81,7.81,0,0,0,2.73-.69c2.59-.69,5.18,1.06,7.87,1.34,3.3.35,6.37-1.54,9.5-2.69,5.18-1.92,10.82-1.92,16.27-2.76,9.12-1.52,17.58-5.76,25.48-10.57a29.75,29.75,0,0,1,9.5-4.49,26.29,26.29,0,0,1,12,1.36A274.43,274.43,0,0,1,284.84,513a127.81,127.81,0,0,0,14.32,5.24,51.81,51.81,0,0,0,32.11-1.92c3.59-1.42,7.48-3.84,7.68-7.79.13-2.21-1.59-4.15-2.73-6-.73-1.21-1.48-2.42-2.26-3.59C330.11,493.33,325.43,485.89,318.61,486.29Z" transform="translate(-9.88 -9.47)"/><path class="cls-14" d="M205.37,510.2q5.26,1.78,10.61,3.3c1.92-3.28,5.76-5.57,6.58-9.33a.88.88,0,0,0,0-.5.92.92,0,0,0-.4-.36,20.11,20.11,0,0,0-8.33-2.44c-2.3-.13-3.36,2.26-4.39,4C209,505.57,206.31,510.56,205.37,510.2Z" transform="translate(-9.88 -9.47)"/><path class="cls-13" d="M210.28,507.86a7.68,7.68,0,0,1-5.16-3.4c-.48-.86-1-2-2-1.92s-1.32,1.15-1.54,2.05a57.57,57.57,0,0,1-2.9,10,18.69,18.69,0,0,1-6.2,8.16c-1.3.9-2.74,1.57-4,2.53a27.7,27.7,0,0,1-3.4,2.57,20.17,20.17,0,0,1-2.61,1,18.1,18.1,0,0,0-3.72,1.92,7.39,7.39,0,0,0-2.55,2.44,3.51,3.51,0,0,0-.19,3.4,3.63,3.63,0,0,0,2.48,1.69,10.44,10.44,0,0,0,3.09,0c4.09-.29,8.18-.65,12.26-1a35.39,35.39,0,0,0,5.12-.71l2.67-.73a21.23,21.23,0,0,1,4.66-.69,3.63,3.63,0,0,1,1.36.13c.94.31,1.61,1.25,2.59,1.44a4.34,4.34,0,0,0,1.92-.25,42.37,42.37,0,0,1,9.08-.94c1.34,0,2.92-.35,3.53-1.54.77-1.5-.5-3.17-1-4.78a15.35,15.35,0,0,1-.42-3.13,19.07,19.07,0,0,0-2.25-7.45c-1-1.92-2.46-4-1.73-6.06a5.76,5.76,0,0,0,.69-2.09C219.73,507.11,212.16,508.28,210.28,507.86Z" transform="translate(-9.88 -9.47)"/><path class="cls-14" d="M285,450.33a17.5,17.5,0,0,1-8.94-8.87c-.36-.84-.67-1.75-1-2.59a19.69,19.69,0,0,0-5.33-7.43,2.63,2.63,0,0,0-1.92-.83,2.09,2.09,0,0,0-1.44,1.55,5.93,5.93,0,0,0-.15,2.4,42.74,42.74,0,0,0,1,5.6l1.09,5a10.86,10.86,0,0,0,.67,2.21,7.68,7.68,0,0,0,1.82,2.17c1,.92,2,1.8,3,2.69a10.42,10.42,0,0,0,1.92,1.32,11.15,11.15,0,0,0,3.4,1,28.9,28.9,0,0,1,12.74,4.91v-3.68a4.87,4.87,0,0,0-1-2.67A17,17,0,0,0,285,450.33Z" transform="translate(-9.88 -9.47)"/><path class="cls-5" d="M285,450.33a17.5,17.5,0,0,1-8.94-8.87c-.36-.84-.67-1.75-1-2.59a19.69,19.69,0,0,0-5.33-7.43,2.63,2.63,0,0,0-1.92-.83,2.09,2.09,0,0,0-1.44,1.55,5.93,5.93,0,0,0-.15,2.4,42.74,42.74,0,0,0,1,5.6l1.09,5a10.86,10.86,0,0,0,.67,2.21,7.68,7.68,0,0,0,1.82,2.17c1,.92,2,1.8,3,2.69a10.42,10.42,0,0,0,1.92,1.32,11.15,11.15,0,0,0,3.4,1,28.9,28.9,0,0,1,12.74,4.91v-3.68a4.87,4.87,0,0,0-1-2.67A17,17,0,0,0,285,450.33Z" transform="translate(-9.88 -9.47)"/><ellipse class="cls-13" cx="320.77" cy="397.48" rx="5.45" ry="5.49"/><path class="cls-13" d="M327.27,403.66a5.89,5.89,0,0,0-4.3.61,6,6,0,0,0-1.48,2,29.27,29.27,0,0,0-2.84,6.68c-.48,1.92-.56,4.09-1.17,6.06-1.11,3.65-4,6.74-4.3,10.54-.15,1.71.13,3.7-1.11,4.86a7.06,7.06,0,0,1-1,.71,7.37,7.37,0,0,0-2.15,2.21,7.23,7.23,0,0,1-1.52,2.09c-1.11.83-3,.75-3.49,1.92s.86,2.76.54,4.15-1.54,1.65-2.4,2.42a8.39,8.39,0,0,0-2.07,3.84,12.8,12.8,0,0,1-10.44-2.59,33.24,33.24,0,0,1,1.63,11.94,4.87,4.87,0,0,1-1,3.68A66.48,66.48,0,0,1,303,467a8.83,8.83,0,0,0,5.58,0,9.33,9.33,0,0,0,2.57-2c2.3-2.34,4.72-4.89,5.28-8.14a47.81,47.81,0,0,0,.1-5.51,31.05,31.05,0,0,1,1.4-6.7,79.69,79.69,0,0,0,2.44-13.78c.25-2.88,2.74-5.18,4-7.68,2.46-4.86,5-9.9,5.16-15.35C329.69,406.05,329.07,403.85,327.27,403.66Z" transform="translate(-9.88 -9.47)"/><path class="cls-5" d="M327.27,403.66a5.89,5.89,0,0,0-4.3.61,6,6,0,0,0-1.48,2,29.27,29.27,0,0,0-2.84,6.68c-.48,1.92-.56,4.09-1.17,6.06-1.11,3.65-4,6.74-4.3,10.54-.15,1.71.13,3.7-1.11,4.86a7.06,7.06,0,0,1-1,.71,7.37,7.37,0,0,0-2.15,2.21,7.23,7.23,0,0,1-1.52,2.09c-1.11.83-3,.75-3.49,1.92s.86,2.76.54,4.15-1.54,1.65-2.4,2.42a8.39,8.39,0,0,0-2.07,3.84,12.8,12.8,0,0,1-10.44-2.59,33.24,33.24,0,0,1,1.63,11.94,4.87,4.87,0,0,1-1,3.68A66.48,66.48,0,0,1,303,467a8.83,8.83,0,0,0,5.58,0,9.33,9.33,0,0,0,2.57-2c2.3-2.34,4.72-4.89,5.28-8.14a47.81,47.81,0,0,0,.1-5.51,31.05,31.05,0,0,1,1.4-6.7,79.69,79.69,0,0,0,2.44-13.78c.25-2.88,2.74-5.18,4-7.68,2.46-4.86,5-9.9,5.16-15.35C329.69,406.05,329.07,403.85,327.27,403.66Z" transform="translate(-9.88 -9.47)"/><path class="cls-13" d="M322.16,491c-4.66-2.23-8.08-6.35-11.86-9.9-7.2-6.77-16-11.51-23.58-17.9-5-4.2-9.6-9.1-15-12.63a37.56,37.56,0,0,0-16.1-5.62,4.28,4.28,0,0,0-1.92,0,4.41,4.41,0,0,0-1.82,1.44,58,58,0,0,0-6.51,8.92c-9.6,16.31-23.24,30-34.54,45.17a2.88,2.88,0,0,0-.56,1.07,2.67,2.67,0,0,0,.42,1.67l2.3,4.49c1.29,2.53,3.36,5.47,6.12,5a6.7,6.7,0,0,0,3.2-2.05l10.32-9.88,10.82-10.34c6.33-6,12.78-12.24,16.93-20,3.22,5.6,9,9.27,12.88,14.39,1.5,1.92,2.73,4.09,4.07,6.16,2.13,3.3,4.57,6.41,7,9.6l12.42,15.83a23.76,23.76,0,0,0,5.76,5.76,22,22,0,0,0,10,2.67,131.64,131.64,0,0,0,14,.5,24.18,24.18,0,0,0,10.46-1.92,9.48,9.48,0,0,0,5.66-8.42,12.36,12.36,0,0,0-1.78-5.24C336.31,501.74,330.51,495,322.16,491Z" transform="translate(-9.88 -9.47)"/><ellipse class="cls-15" cx="324.13" cy="401.28" rx="4.2" ry="4.22"/><path class="cls-14" d="M333.08,407.59a8.08,8.08,0,0,1,.46,6.06,24.6,24.6,0,0,1-2.71,5.58,26.58,26.58,0,0,1-3.51,5c6.49.31,12.76-2.23,18.46-5.3,4.61-2.48,9.19-5.53,11.65-10.15a5.37,5.37,0,0,1-4.3-.81,15.35,15.35,0,0,1-3.28-3.05l-3.24-3.65a14.61,14.61,0,0,1-1.92-2.63,7.25,7.25,0,0,1-.86-4.24,24.69,24.69,0,0,1-4.3,3.57c-2.32,1.52-4.87,2.61-7.22,4.11-.81.54-2.65,1.38-2.17,2.46S332.43,406.44,333.08,407.59Z" transform="translate(-9.88 -9.47)"/><path class="cls-5" d="M333.08,407.59a8.08,8.08,0,0,1,.46,6.06,24.6,24.6,0,0,1-2.71,5.58,26.58,26.58,0,0,1-3.51,5c6.49.31,12.76-2.23,18.46-5.3,4.61-2.48,9.19-5.53,11.65-10.15a5.37,5.37,0,0,1-4.3-.81,15.35,15.35,0,0,1-3.28-3.05l-3.24-3.65a14.61,14.61,0,0,1-1.92-2.63,7.25,7.25,0,0,1-.86-4.24,24.69,24.69,0,0,1-4.3,3.57c-2.32,1.52-4.87,2.61-7.22,4.11-.81.54-2.65,1.38-2.17,2.46S332.43,406.44,333.08,407.59Z" transform="translate(-9.88 -9.47)"/><path class="cls-15" d="M333.16,408.22a5.47,5.47,0,0,0,0,6.33c.19.23.88,1.67,1.17,1.69a1.06,1.06,0,0,0,.73-.38,48.17,48.17,0,0,0,4.11-4.89,9.13,9.13,0,0,1,5.22-3.42,11.28,11.28,0,0,1,7.2,2.25,6.83,6.83,0,0,1,2.48,1.92,6.7,6.7,0,0,1,.81,2.74,132.23,132.23,0,0,1,.73,17.44,68.74,68.74,0,0,1-.83,12.57c-.42,2.13-1,4.22-1.32,6.39a40.77,40.77,0,0,0-.27,5.76v8a21.11,21.11,0,0,0,.31,4.39c.38,1.75,1.21,3.38,1.77,5.09a33.26,33.26,0,0,1,1.17,6l1.09,8.29c.35,2.61.61,5.47-1,7.68-.71.94-1.65,1.71-2.38,2.65-2.71,3.53-1.92,8.58-3,12.9a16.08,16.08,0,0,1-5.26,8.06,8.69,8.69,0,0,1-6.93,2.48c-3.38-.63-5.39-4.15-6.31-7.47s-1.25-6.93-3.24-9.73a25.81,25.81,0,0,0-6.41-5.35,11.07,11.07,0,0,1-5-6.51c-.21-1.21,0-2.46-.21-3.68a8.69,8.69,0,0,0-5.35-7c-1.73-.67-3.84-.92-4.84-2.49a11.65,11.65,0,0,0,5-6.77,34.79,34.79,0,0,0,1.23-8.56l.58-9.6c.27-4.32.38-8.58,2.28-12.45.84-1.73,1.92-3.36,2.78-5.07a55,55,0,0,0,3-7.43c1.38-4,2.76-7.91,4-11.9a22.41,22.41,0,0,1,2.19-5.55C329.72,410.77,331.22,408.61,333.16,408.22Z" transform="translate(-9.88 -9.47)"/><path class="cls-13" d="M311.76,470.86h2.55l.54-3.84a8,8,0,0,1,.54-2.25,13.43,13.43,0,0,1,1.48-2.15c2.49-3.55,2.32-8.25,2.94-12.57a64,64,0,0,1,5.6-16.43l5-11a15.24,15.24,0,0,0,1.07-2.82,16.93,16.93,0,0,0,.31-3.26c0-1.71.54-7.93.59-9.6,0-.63-1.4-.29-1.69-.84-.61-1.23-1.46,2.09-2.63,2.82a6.45,6.45,0,0,0-2.28,3.34C324.66,415,324,418,323,420.73a17.37,17.37,0,0,1-4.62,7.52c-1,.88-2.19,1.59-3.15,2.55-3.07,3-3.38,7.85-3.47,12.19C311.69,445.64,311.19,470.86,311.76,470.86Z" transform="translate(-9.88 -9.47)"/><path class="cls-13" d="M348.49,403.64a8.71,8.71,0,0,0-4.55,6.24,31.55,31.55,0,0,1-2.3,7.68c-3.11,5.41-11,7-13.24,12.84a23.61,23.61,0,0,0-.88,6c-.38,4.2-1.77,8.25-2.19,12.44a55.4,55.4,0,0,0,.23,9.77l2.78,33a44.14,44.14,0,0,1-.83,14.55,14,14,0,0,0,8.33-1.38c2.59-1.19,5-2.82,7.48-4.2,4.3-2.38,9.06-4,12.84-7.22a7.85,7.85,0,0,0,1.73-1.92,16.6,16.6,0,0,0,1.15-4.34,23.4,23.4,0,0,1,1.25-3.42,100.65,100.65,0,0,0,3.61-10.21,58.58,58.58,0,0,0,1.65-7c.31-1.92.48-3.84.63-5.76a33.77,33.77,0,0,1,1.77-8.73,70.33,70.33,0,0,0,4-21,11,11,0,0,0-.21-3.07,16.42,16.42,0,0,0-1.69-3.51c-1.15-2.17-1.92-4.55-2.92-6.75a33.22,33.22,0,0,0-11.34-11.92C353.62,404.35,351,402.73,348.49,403.64Z" transform="translate(-9.88 -9.47)"/><path class="cls-14" d="M290.52,457.56a20,20,0,0,1-5.28-4c-.69-.81-1.27-1.71-1.92-2.51a13.07,13.07,0,0,0-6.64-3.84,32.43,32.43,0,0,0-7.68-.75,13.93,13.93,0,0,0-5.12.61,5.22,5.22,0,0,0-3.4,3.65,6,6,0,0,0,2.59,5.37,12.2,12.2,0,0,0,5.16,2.49,41.25,41.25,0,0,0,4.66.56c9.17,1,17.37,5.95,25.41,10.5q10.59,6,21.61,11.21a44.91,44.91,0,0,0,.36-6.62c0-1.65-.13-4.18-1.69-5.16a33.89,33.89,0,0,0-6.87-2.05,108.1,108.1,0,0,1-13.84-5.6A68.86,68.86,0,0,1,290.52,457.56Z" transform="translate(-9.88 -9.47)"/><ellipse class="cls-14" cx="320.77" cy="379.79" rx="16.35" ry="16.45"/><path class="cls-13" d="M353.16,422.27A26.21,26.21,0,0,0,350,428.2c-1.92,4.15-5.18,7.68-6.77,12.07s-1.61,10-4.89,13.63a4.78,4.78,0,0,0-1.44,2.07,9.9,9.9,0,0,1-.15,1.5c-.48,1.3-2.61,1.36-3,2.71-.12.38,0,.81-.19,1.19-.33.86-1.48,1-2.23,1.52-1.59,1.07-1.27,3.57-2.4,5.12a4.32,4.32,0,0,1-4.09,1.44,14.39,14.39,0,0,1-4.24-1.59,4.09,4.09,0,0,0-1.54-.48,3.17,3.17,0,0,0-1.77.61,10.88,10.88,0,0,0-4.41,9.31,30.4,30.4,0,0,0,2.53,10.42,4.18,4.18,0,0,0,.83,1.55,3.67,3.67,0,0,0,4.07.31,19.19,19.19,0,0,1,4-1.78c2.53-.46,5,1.29,7.58,1.13a10.54,10.54,0,0,0,5.1-2.25,28.21,28.21,0,0,0,6.87-5.76c1.11-1.48,1.92-3.15,2.92-4.72a60.53,60.53,0,0,1,4.13-5.51l9.44-11.51a26.54,26.54,0,0,0,2.53-3.49,24.62,24.62,0,0,0,1.92-5.28,40.44,40.44,0,0,0,1.92-9.38,36.05,36.05,0,0,0-.69-7.87,27.81,27.81,0,0,0-1.92-7.5C362,421.31,357,417.78,353.16,422.27Z" transform="translate(-9.88 -9.47)"/><path class="cls-16" d="M386,400.82a18.42,18.42,0,0,0-7.56-15,21.9,21.9,0,0,0-18.6-21.32A21.24,21.24,0,0,0,318,365.66c-6.79-1.54-13,.46-14.14,4.64s3.67,9.6,10.82,11.51a20.17,20.17,0,0,0,6.95.69,21.26,21.26,0,0,0,14.62,9.12,21.82,21.82,0,0,0,16,16.47,18.33,18.33,0,0,0,4.93,6.81v1.59a13.84,13.84,0,1,0,27.67,0v0a14.78,14.78,0,0,0-1.32-6.12A18.5,18.5,0,0,0,386,400.82Z" transform="translate(-9.88 -9.47)"/><path class="cls-5" d="M308.46,371.19c1.13-4.18,7.35-6.18,14.14-4.64a21.61,21.61,0,0,1,21.11-18.19h1.4a20.8,20.8,0,0,0-6-.9A21.61,21.61,0,0,0,318,365.64c-6.79-1.54-13,.46-14.14,4.64s3.67,9.6,10.82,11.51a21.11,21.11,0,0,0,4.11.71C311.92,380.45,307.33,375.46,308.46,371.19Z" transform="translate(-9.88 -9.47)"/><path class="cls-5" d="M361.68,417.3a14.45,14.45,0,0,1,0-1.57,17.92,17.92,0,0,1-4.93-6.81,21.76,21.76,0,0,1-16-16.48,21.2,21.2,0,0,1-14.64-9.1,18.42,18.42,0,0,1-4.09-.12,21.32,21.32,0,0,0,14.1,8.39,21.82,21.82,0,0,0,16,16.47,18.33,18.33,0,0,0,4.93,6.81v1.59a14.09,14.09,0,0,0,13.76,14.32A14.32,14.32,0,0,1,361.68,417.3Z" transform="translate(-9.88 -9.47)"/><ellipse class="cls-14" cx="336.11" cy="392.63" rx="2.51" ry="3.36" transform="translate(-178.91 273.8) rotate(-37.22)"/></svg>